<svg width="368" height="189" viewBox="0 0 368 189" fill="none" xmlns="http://www.w3.org/2000/svg">
<g filter="url(#filter0_d_517_5620)">
<rect x="4" y="1" width="360" height="180" rx="22" fill="#303039"/>
<circle cx="147" cy="161" r="4" fill="#1D1F2A"/>
<circle cx="163" cy="161" r="4" fill="#1D1F2A"/>
<rect x="175" y="157" width="18" height="8" rx="4" fill="#FAC840"/>
<circle cx="205" cy="161" r="4" fill="#1D1F2A"/>
<circle cx="221" cy="161" r="4" fill="#1D1F2A"/>
<path fill-rule="evenodd" clip-rule="evenodd" d="M183 181C183 181 236 168.5 245 164.5C254 160.5 249 140 259 140C269 140 294.5 160.5 310 160.5C325.5 160.5 333 114 339.5 114C346 114 350 140 356 140C362 140 364 104.5 364 104.5V161C364 172.046 355.046 181 344 181H183Z" fill="#1D1F2A"/>
<path fill-rule="evenodd" clip-rule="evenodd" d="M4 65.5V21C4 9.95431 12.9543 1 24 1H160C160 1 134.5 40 121.5 33.5C108.5 27 104.914 14.0479 87 19.5C69.0858 24.9521 75.0279 47.6068 64 51C52.9721 54.3932 39 32.5 32 37C25 41.5 23.3524 69.5877 20 73C16.6476 76.4123 4 65.5 4 65.5Z" fill="#1D1F2A"/>
<path d="M181.57 1.869L164.43 29.131" stroke="#1D1F2A" stroke-width="2" stroke-linecap="round" stroke-linejoin="round"/>
<path d="M179.158 25.2587L165.682 45.1185" stroke="#1D1F2A" stroke-width="2" stroke-linecap="round" stroke-linejoin="round"/>
<path d="M205 77.2998C205.265 77.2998 205.507 77.4496 205.626 77.6865L209.626 85.6865C209.734 85.9035 209.723 86.1618 209.596 86.3682C209.468 86.5745 209.243 86.7002 209 86.7002H201C200.757 86.7002 200.532 86.5745 200.404 86.3682C200.277 86.1618 200.266 85.9035 200.374 85.6865L204.374 77.6865L204.424 77.6025C204.553 77.4148 204.768 77.2998 205 77.2998Z" stroke="#1D1F2A" stroke-width="1.4" stroke-linejoin="round"/>
<ellipse cx="229" cy="37" rx="20" ry="5" stroke="#1D1F2A" stroke-width="2"/>
<path d="M28.975 46V44.275L32.53 40.495C32.9 40.085 33.175 39.705 33.355 39.355C33.545 38.995 33.64 38.64 33.64 38.29C33.64 37.87 33.515 37.555 33.265 37.345C33.015 37.135 32.655 37.03 32.185 37.03C31.735 37.03 31.27 37.12 30.79 37.3C30.32 37.47 29.845 37.725 29.365 38.065L28.615 36.385C29.045 36.015 29.595 35.725 30.265 35.515C30.935 35.295 31.615 35.185 32.305 35.185C33.035 35.185 33.675 35.305 34.225 35.545C34.775 35.785 35.195 36.13 35.485 36.58C35.785 37.02 35.935 37.54 35.935 38.14C35.935 38.77 35.805 39.345 35.545 39.865C35.295 40.385 34.87 40.965 34.27 41.605L31.21 44.815L30.91 44.125H36.31V46H28.975ZM41.4188 46.12C40.7388 46.12 40.0638 46.015 39.3938 45.805C38.7338 45.585 38.1988 45.29 37.7888 44.92L38.5388 43.24C39.0088 43.58 39.4888 43.84 39.9788 44.02C40.4688 44.19 40.9588 44.275 41.4488 44.275C42.0688 44.275 42.5338 44.135 42.8438 43.855C43.1638 43.565 43.3238 43.15 43.3238 42.61C43.3238 42.25 43.2488 41.945 43.0988 41.695C42.9588 41.435 42.7488 41.24 42.4688 41.11C42.1988 40.97 41.8738 40.9 41.4938 40.9C41.1538 40.9 40.8038 40.965 40.4438 41.095C40.0938 41.215 39.7788 41.395 39.4988 41.635H38.1638V35.32H45.0188V37.12H40.4438V40.18L39.7388 40.06C40.0488 39.74 40.3988 39.5 40.7888 39.34C41.1888 39.17 41.6438 39.085 42.1538 39.085C42.8238 39.085 43.4088 39.23 43.9088 39.52C44.4188 39.81 44.8188 40.21 45.1088 40.72C45.3988 41.23 45.5438 41.83 45.5438 42.52C45.5438 43.24 45.3738 43.87 45.0338 44.41C44.6938 44.95 44.2138 45.37 43.5938 45.67C42.9838 45.97 42.2588 46.12 41.4188 46.12ZM48.8529 41.785C48.0529 41.785 47.4179 41.51 46.9479 40.96C46.4879 40.41 46.2579 39.59 46.2579 38.5C46.2579 37.43 46.4879 36.625 46.9479 36.085C47.4179 35.535 48.0529 35.26 48.8529 35.26C49.6529 35.26 50.2829 35.535 50.7429 36.085C51.2029 36.635 51.4329 37.445 51.4329 38.515C51.4329 39.595 51.2029 40.41 50.7429 40.96C50.2829 41.51 49.6529 41.785 48.8529 41.785ZM48.8529 40.36C49.0929 40.36 49.2679 40.22 49.3779 39.94C49.4979 39.66 49.5579 39.185 49.5579 38.515C49.5579 37.855 49.4979 37.385 49.3779 37.105C49.2579 36.825 49.0829 36.685 48.8529 36.685C48.6129 36.685 48.4329 36.825 48.3129 37.105C48.1929 37.385 48.1329 37.855 48.1329 38.515C48.1329 39.185 48.1929 39.66 48.3129 39.94C48.4329 40.22 48.6129 40.36 48.8529 40.36ZM48.5679 46L54.7629 35.32H56.9529L50.7579 46H48.5679ZM56.6529 46.06C55.8529 46.06 55.2179 45.785 54.7479 45.235C54.2879 44.685 54.0579 43.865 54.0579 42.775C54.0579 41.705 54.2879 40.9 54.7479 40.36C55.2179 39.81 55.8529 39.535 56.6529 39.535C57.4529 39.535 58.0829 39.81 58.5429 40.36C59.0029 40.91 59.2329 41.72 59.2329 42.79C59.2329 43.87 59.0029 44.685 58.5429 45.235C58.0829 45.785 57.4529 46.06 56.6529 46.06ZM56.6529 44.635C56.8929 44.635 57.0679 44.495 57.1779 44.215C57.2979 43.935 57.3579 43.46 57.3579 42.79C57.3579 42.13 57.2979 41.66 57.1779 41.38C57.0579 41.1 56.8829 40.96 56.6529 40.96C56.4129 40.96 56.2329 41.1 56.1129 41.38C55.9929 41.66 55.9329 42.13 55.9329 42.79C55.9329 43.46 55.9929 43.935 56.1129 44.215C56.2329 44.495 56.4129 44.635 56.6529 44.635ZM69.6975 46.135C68.6275 46.135 67.7025 45.91 66.9225 45.46C66.1425 45.01 65.5375 44.375 65.1075 43.555C64.6875 42.735 64.4775 41.765 64.4775 40.645C64.4775 39.535 64.6875 38.57 65.1075 37.75C65.5375 36.93 66.1425 36.3 66.9225 35.86C67.7025 35.41 68.6275 35.185 69.6975 35.185C70.7675 35.185 71.6875 35.41 72.4575 35.86C73.2375 36.3 73.8375 36.93 74.2575 37.75C74.6775 38.57 74.8875 39.535 74.8875 40.645C74.8875 41.765 74.6775 42.735 74.2575 43.555C73.8375 44.375 73.2375 45.01 72.4575 45.46C71.6875 45.91 70.7675 46.135 69.6975 46.135ZM69.6975 44.32C70.5775 44.32 71.2725 44.01 71.7825 43.39C72.3025 42.76 72.5625 41.845 72.5625 40.645C72.5625 39.445 72.3025 38.54 71.7825 37.93C71.2725 37.31 70.5775 37 69.6975 37C68.8075 37 68.1075 37.31 67.5975 37.93C67.0875 38.54 66.8325 39.445 66.8325 40.645C66.8325 41.855 67.0875 42.77 67.5975 43.39C68.1075 44.01 68.8075 44.32 69.6975 44.32ZM76.7164 46V35.32H83.9164V37.18H79.0264V39.655H83.6164V41.5H79.0264V46H76.7164ZM85.3882 46V35.32H92.5882V37.18H87.6982V39.655H92.2882V41.5H87.6982V46H85.3882ZM95.2901 40.96L94.0451 40.045L95.3801 38.44L93.3401 37.9L93.8351 36.415L95.7701 37.18L95.6501 35.095H97.2101L97.0751 37.165L99.0401 36.415L99.5201 37.9L97.4801 38.425L98.8151 40.045L97.5551 40.96L96.4301 39.205L95.2901 40.96Z" fill="white"/>
<path d="M33.17 72V59.13H28.264V56.336H41.552V59.13H36.646V72H33.17ZM46.6973 72.176C45.4946 72.176 44.4533 71.9413 43.5733 71.472C42.6933 71.0027 42.0113 70.3353 41.5273 69.47C41.0579 68.59 40.8233 67.556 40.8233 66.368C40.8233 65.18 41.0579 64.1533 41.5273 63.288C42.0113 62.4227 42.6933 61.7553 43.5733 61.286C44.4533 60.802 45.4946 60.56 46.6973 60.56C47.8706 60.56 48.8973 60.802 49.7773 61.286C50.6573 61.7553 51.3319 62.4227 51.8013 63.288C52.2853 64.1533 52.5273 65.18 52.5273 66.368C52.5273 67.556 52.2853 68.59 51.8013 69.47C51.3319 70.3353 50.6573 71.0027 49.7773 71.472C48.8973 71.9413 47.8706 72.176 46.6973 72.176ZM46.6973 69.646C47.5039 69.646 48.1273 69.382 48.5673 68.854C49.0073 68.3113 49.2273 67.4827 49.2273 66.368C49.2273 65.268 49.0073 64.454 48.5673 63.926C48.1273 63.3833 47.5039 63.112 46.6973 63.112C45.8759 63.112 45.2379 63.3833 44.7833 63.926C44.3433 64.454 44.1233 65.268 44.1233 66.368C44.1233 67.4827 44.3433 68.3113 44.7833 68.854C45.2233 69.382 45.8613 69.646 46.6973 69.646ZM65.8266 72H62.5486V69.272L62.8126 69.756C62.5633 70.5187 62.0939 71.1127 61.4046 71.538C60.7153 71.9633 59.9233 72.176 59.0286 72.176C58.0606 72.176 57.2026 71.934 56.4546 71.45C55.7213 70.9513 55.1419 70.2693 54.7166 69.404C54.3059 68.524 54.1006 67.4973 54.1006 66.324C54.1006 65.1653 54.3059 64.1533 54.7166 63.288C55.1273 62.4227 55.7066 61.7553 56.4546 61.286C57.2026 60.802 58.0606 60.56 59.0286 60.56C59.9233 60.56 60.7153 60.7873 61.4046 61.242C62.0939 61.682 62.5633 62.2687 62.8126 63.002L62.5046 63.398V55.808H65.8266V72ZM59.9966 69.646C60.8033 69.646 61.4266 69.3673 61.8666 68.81C62.3213 68.2527 62.5486 67.4387 62.5486 66.368C62.5486 65.3413 62.3213 64.542 61.8666 63.97C61.4266 63.398 60.8033 63.112 59.9966 63.112C59.1606 63.112 58.5153 63.3907 58.0606 63.948C57.6206 64.5053 57.4006 65.2973 57.4006 66.324C57.4006 67.3947 57.6279 68.216 58.0826 68.788C58.5519 69.36 59.1899 69.646 59.9966 69.646ZM72.886 72.176C71.918 72.176 71.06 71.9413 70.312 71.472C69.564 71.0027 68.9847 70.3353 68.574 69.47C68.1633 68.6047 67.958 67.5927 67.958 66.434C67.958 65.2753 68.1633 64.256 68.574 63.376C68.9993 62.4813 69.5787 61.792 70.312 61.308C71.06 60.8093 71.918 60.56 72.886 60.56C73.7807 60.56 74.5727 60.78 75.262 61.22C75.9513 61.66 76.4207 62.254 76.67 63.002L76.406 63.178V60.846H79.684V72H76.406V69.712L76.67 69.756C76.4207 70.5187 75.9513 71.1127 75.262 71.538C74.5727 71.9633 73.7807 72.176 72.886 72.176ZM73.854 69.646C74.6607 69.646 75.284 69.3673 75.724 68.81C76.1787 68.2527 76.406 67.446 76.406 66.39C76.406 65.334 76.1787 64.5273 75.724 63.97C75.284 63.398 74.6607 63.112 73.854 63.112C73.0473 63.112 72.4093 63.4053 71.94 63.992C71.4853 64.5787 71.258 65.3927 71.258 66.434C71.258 67.4753 71.478 68.2747 71.918 68.832C72.3727 69.3747 73.018 69.646 73.854 69.646ZM82.2994 77.016L81.5294 74.464C82.2188 74.332 82.7834 74.1633 83.2234 73.958C83.6781 73.7673 84.0521 73.5253 84.3454 73.232C84.6388 72.9387 84.8808 72.5793 85.0714 72.154L85.9294 70.24L86.8094 68.942L90.0874 60.846H93.3654L88.2394 72.572C87.7848 73.5987 87.2641 74.4127 86.6774 75.014C86.0908 75.6153 85.4308 76.07 84.6974 76.378C83.9641 76.686 83.1648 76.8987 82.2994 77.016ZM86.0174 72.836L80.8034 60.846H84.2574L87.4694 68.942L86.0174 72.836ZM95.996 63.068L94.72 62.034C95.2333 61.506 95.6 61.0147 95.82 60.56C96.04 60.0907 96.15 59.5993 96.15 59.086L96.942 59.878H94.412V56.336H98.02V58.602C98.02 59.4527 97.866 60.2227 97.558 60.912C97.2647 61.6013 96.744 62.32 95.996 63.068ZM104.187 72.176C102.06 72.176 100.381 71.7213 99.1487 70.812L100.051 68.502C100.637 68.9273 101.29 69.2573 102.009 69.492C102.742 69.712 103.475 69.822 104.209 69.822C104.781 69.822 105.221 69.734 105.529 69.558C105.837 69.3673 105.991 69.1107 105.991 68.788C105.991 68.5093 105.881 68.2967 105.661 68.15C105.441 67.9887 105.052 67.842 104.495 67.71L102.669 67.27C101.583 67.05 100.784 66.6833 100.271 66.17C99.772 65.6567 99.5227 64.9747 99.5227 64.124C99.5227 63.4347 99.7207 62.826 100.117 62.298C100.527 61.7553 101.092 61.33 101.811 61.022C102.529 60.714 103.365 60.56 104.319 60.56C105.125 60.56 105.903 60.6847 106.651 60.934C107.399 61.1687 108.081 61.506 108.697 61.946L107.773 64.168C107.201 63.772 106.614 63.4713 106.013 63.266C105.426 63.0607 104.854 62.958 104.297 62.958C103.754 62.958 103.329 63.0533 103.021 63.244C102.713 63.4347 102.559 63.6987 102.559 64.036C102.559 64.2853 102.647 64.4833 102.823 64.63C103.013 64.7767 103.343 64.9087 103.813 65.026L105.683 65.444C106.827 65.708 107.655 66.104 108.169 66.632C108.682 67.16 108.939 67.864 108.939 68.744C108.939 69.8 108.513 70.636 107.663 71.252C106.827 71.868 105.668 72.176 104.187 72.176ZM122.868 72.198C122.076 72.198 121.299 72.132 120.536 72C119.788 71.8533 119.084 71.648 118.424 71.384C117.764 71.1053 117.192 70.7753 116.708 70.394L117.83 67.93C118.607 68.4727 119.414 68.876 120.25 69.14C121.086 69.404 121.966 69.536 122.89 69.536C123.887 69.536 124.65 69.3747 125.178 69.052C125.721 68.7293 125.992 68.282 125.992 67.71C125.992 67.3727 125.882 67.0867 125.662 66.852C125.442 66.6173 125.09 66.412 124.606 66.236C124.122 66.06 123.477 65.884 122.67 65.708C121.658 65.5027 120.793 65.2607 120.074 64.982C119.355 64.7033 118.769 64.3807 118.314 64.014C117.874 63.6473 117.551 63.222 117.346 62.738C117.141 62.2393 117.038 61.6673 117.038 61.022C117.038 60.098 117.295 59.2693 117.808 58.536C118.336 57.788 119.062 57.2013 119.986 56.776C120.925 56.3507 122.017 56.138 123.264 56.138C124.012 56.138 124.738 56.2113 125.442 56.358C126.161 56.5047 126.821 56.71 127.422 56.974C128.023 57.238 128.529 57.5607 128.94 57.942L127.84 60.406C127.136 59.8633 126.403 59.46 125.64 59.196C124.877 58.932 124.1 58.8 123.308 58.8C122.413 58.8 121.702 58.9833 121.174 59.35C120.646 59.702 120.382 60.186 120.382 60.802C120.382 61.1393 120.485 61.4253 120.69 61.66C120.895 61.8947 121.233 62.1073 121.702 62.298C122.186 62.474 122.846 62.6573 123.682 62.848C124.665 63.0533 125.515 63.2953 126.234 63.574C126.953 63.8527 127.539 64.1753 127.994 64.542C128.463 64.894 128.808 65.312 129.028 65.796C129.248 66.2653 129.358 66.808 129.358 67.424C129.358 68.4067 129.101 69.2573 128.588 69.976C128.075 70.68 127.334 71.23 126.366 71.626C125.398 72.0073 124.232 72.198 122.868 72.198ZM131.629 76.752V64.036C131.629 63.508 131.614 62.98 131.585 62.452C131.57 61.9093 131.526 61.374 131.453 60.846H134.577L134.819 63.002H134.687C134.922 62.254 135.376 61.66 136.051 61.22C136.74 60.78 137.54 60.56 138.449 60.56C139.417 60.56 140.268 60.8093 141.001 61.308C141.749 61.792 142.336 62.4813 142.761 63.376C143.186 64.256 143.399 65.2753 143.399 66.434C143.399 67.5927 143.186 68.6047 142.761 69.47C142.336 70.3353 141.749 71.0027 141.001 71.472C140.268 71.9413 139.417 72.176 138.449 72.176C137.54 72.176 136.74 71.9633 136.051 71.538C135.376 71.1127 134.922 70.5187 134.687 69.756L134.951 69.338V76.752H131.629ZM137.503 69.646C138.324 69.646 138.955 69.3747 139.395 68.832C139.835 68.2747 140.055 67.4753 140.055 66.434C140.055 65.3927 139.828 64.5787 139.373 63.992C138.933 63.4053 138.31 63.112 137.503 63.112C136.667 63.112 136.029 63.398 135.589 63.97C135.149 64.5273 134.929 65.334 134.929 66.39C134.929 67.446 135.149 68.2527 135.589 68.81C136.029 69.3673 136.667 69.646 137.503 69.646ZM155.342 70.812C154.799 71.2373 154.139 71.5747 153.362 71.824C152.584 72.0587 151.8 72.176 151.008 72.176C149.761 72.176 148.683 71.9413 147.774 71.472C146.879 71.0027 146.19 70.3353 145.706 69.47C145.222 68.6047 144.98 67.578 144.98 66.39C144.98 65.246 145.214 64.234 145.684 63.354C146.153 62.474 146.791 61.792 147.598 61.308C148.419 60.8093 149.372 60.56 150.458 60.56C151.499 60.56 152.401 60.7947 153.164 61.264C153.926 61.7187 154.513 62.3713 154.924 63.222C155.334 64.058 155.54 65.0553 155.54 66.214V66.698H147.906L147.95 65.048H153.56L152.702 65.73C152.716 64.7913 152.533 64.0873 152.152 63.618C151.785 63.134 151.25 62.892 150.546 62.892C149.783 62.892 149.189 63.1707 148.764 63.728C148.353 64.2707 148.148 65.07 148.148 66.126C148.148 67.3727 148.39 68.2747 148.874 68.832C149.372 69.3893 150.128 69.668 151.14 69.668C151.726 69.668 152.306 69.5727 152.878 69.382C153.45 69.1913 153.978 68.92 154.462 68.568L155.342 70.812ZM162.905 72.176C161.703 72.176 160.661 71.9413 159.781 71.472C158.901 71.0027 158.227 70.3427 157.757 69.492C157.303 68.6267 157.075 67.6073 157.075 66.434C157.075 65.2607 157.325 64.234 157.823 63.354C158.322 62.474 159.019 61.792 159.913 61.308C160.808 60.8093 161.857 60.56 163.059 60.56C163.851 60.56 164.629 60.6847 165.391 60.934C166.154 61.1833 166.77 61.5207 167.239 61.946L166.359 64.256C165.919 63.904 165.435 63.6327 164.907 63.442C164.379 63.2367 163.866 63.134 163.367 63.134C162.473 63.134 161.769 63.4053 161.255 63.948C160.742 64.4907 160.485 65.2973 160.485 66.368C160.485 67.4533 160.735 68.2673 161.233 68.81C161.747 69.3527 162.458 69.624 163.367 69.624C163.866 69.624 164.379 69.5287 164.907 69.338C165.435 69.1473 165.919 68.8687 166.359 68.502L167.239 70.812C166.755 71.2373 166.125 71.5747 165.347 71.824C164.57 72.0587 163.756 72.176 162.905 72.176ZM168.819 72V60.846H172.141V72H168.819ZM168.687 55.61H172.273V58.734H168.687V55.61ZM179.234 72.176C178.266 72.176 177.408 71.9413 176.66 71.472C175.912 71.0027 175.332 70.3353 174.922 69.47C174.511 68.6047 174.306 67.5927 174.306 66.434C174.306 65.2753 174.511 64.256 174.922 63.376C175.347 62.4813 175.926 61.792 176.66 61.308C177.408 60.8093 178.266 60.56 179.234 60.56C180.128 60.56 180.92 60.78 181.61 61.22C182.299 61.66 182.768 62.254 183.018 63.002L182.754 63.178V60.846H186.032V72H182.754V69.712L183.018 69.756C182.768 70.5187 182.299 71.1127 181.61 71.538C180.92 71.9633 180.128 72.176 179.234 72.176ZM180.202 69.646C181.008 69.646 181.632 69.3673 182.072 68.81C182.526 68.2527 182.754 67.446 182.754 66.39C182.754 65.334 182.526 64.5273 182.072 63.97C181.632 63.398 181.008 63.112 180.202 63.112C179.395 63.112 178.757 63.4053 178.288 63.992C177.833 64.5787 177.606 65.3927 177.606 66.434C177.606 67.4753 177.826 68.2747 178.266 68.832C178.72 69.3747 179.366 69.646 180.202 69.646ZM188.713 72V55.808H192.035V72H188.713Z" fill="white"/>
<path d="M33.434 101.117C32.446 101.117 31.5923 100.926 30.873 100.545C30.1623 100.164 29.612 99.6177 29.222 98.907C28.8407 98.1963 28.65 97.347 28.65 96.359C28.65 95.3883 28.8407 94.5477 29.222 93.837C29.612 93.1263 30.158 92.5803 30.86 92.199C31.562 91.8177 32.3897 91.627 33.343 91.627C34.0017 91.627 34.6213 91.718 35.202 91.9C35.7827 92.082 36.2593 92.3377 36.632 92.667L35.982 94.123C35.54 93.811 35.1153 93.5857 34.708 93.447C34.3093 93.3083 33.8717 93.239 33.395 93.239C32.5023 93.239 31.8307 93.499 31.38 94.019C30.938 94.539 30.717 95.319 30.717 96.359C30.717 97.425 30.9467 98.2267 31.406 98.764C31.874 99.2927 32.5803 99.557 33.525 99.557C33.8543 99.557 34.1837 99.531 34.513 99.479C34.851 99.4183 35.176 99.3317 35.488 99.219L35.046 99.882V97.308H33.226V95.891H36.879V100.428C36.5757 100.575 36.2333 100.701 35.852 100.805C35.4793 100.909 35.085 100.987 34.669 101.039C34.2617 101.091 33.85 101.117 33.434 101.117ZM44.2775 100.298C43.9569 100.549 43.5669 100.749 43.1075 100.896C42.6482 101.035 42.1845 101.104 41.7165 101.104C40.9799 101.104 40.3429 100.965 39.8055 100.688C39.2769 100.411 38.8695 100.016 38.5835 99.505C38.2975 98.9937 38.1545 98.387 38.1545 97.685C38.1545 97.009 38.2932 96.411 38.5705 95.891C38.8479 95.371 39.2249 94.968 39.7015 94.682C40.1869 94.3873 40.7502 94.24 41.3915 94.24C42.0069 94.24 42.5399 94.3787 42.9905 94.656C43.4412 94.9247 43.7879 95.3103 44.0305 95.813C44.2732 96.307 44.3945 96.8963 44.3945 97.581V97.867H39.8835L39.9095 96.892H43.2245L42.7175 97.295C42.7262 96.7403 42.6179 96.3243 42.3925 96.047C42.1759 95.761 41.8595 95.618 41.4435 95.618C40.9929 95.618 40.6419 95.7827 40.3905 96.112C40.1479 96.4327 40.0265 96.905 40.0265 97.529C40.0265 98.2657 40.1695 98.7987 40.4555 99.128C40.7502 99.4573 41.1965 99.622 41.7945 99.622C42.1412 99.622 42.4835 99.5657 42.8215 99.453C43.1595 99.3403 43.4715 99.18 43.7575 98.972L44.2775 100.298ZM44.7717 95.878V94.409H49.6597V95.878H44.7717ZM49.6597 99.414V100.922C49.4777 100.991 49.2957 101.039 49.1137 101.065C48.9317 101.091 48.7367 101.104 48.5287 101.104C47.7141 101.104 47.0901 100.874 46.6567 100.415C46.2321 99.947 46.0197 99.3013 46.0197 98.478V92.862L47.9827 92.225V98.439C47.9827 98.699 48.0304 98.907 48.1257 99.063C48.2211 99.219 48.3467 99.3317 48.5027 99.401C48.6587 99.4617 48.8277 99.492 49.0097 99.492C49.1137 99.492 49.2134 99.4877 49.3087 99.479C49.4127 99.4617 49.5297 99.44 49.6597 99.414ZM56.9103 101.104C56.3383 101.104 55.8313 100.965 55.3893 100.688C54.9473 100.411 54.6049 100.016 54.3623 99.505C54.1196 98.9937 53.9983 98.3957 53.9983 97.711C53.9983 97.0263 54.1196 96.424 54.3623 95.904C54.6136 95.3753 54.9559 94.968 55.3893 94.682C55.8313 94.3873 56.3383 94.24 56.9103 94.24C57.4389 94.24 57.9069 94.37 58.3143 94.63C58.7216 94.89 58.9989 95.241 59.1463 95.683L58.9903 95.787V94.409H60.9273V101H58.9903V99.648L59.1463 99.674C58.9989 100.125 58.7216 100.476 58.3143 100.727C57.9069 100.978 57.4389 101.104 56.9103 101.104ZM57.4823 99.609C57.9589 99.609 58.3273 99.4443 58.5873 99.115C58.8559 98.7857 58.9903 98.309 58.9903 97.685C58.9903 97.061 58.8559 96.5843 58.5873 96.255C58.3273 95.917 57.9589 95.748 57.4823 95.748C57.0056 95.748 56.6286 95.9213 56.3513 96.268C56.0826 96.6147 55.9483 97.0957 55.9483 97.711C55.9483 98.3263 56.0783 98.7987 56.3383 99.128C56.6069 99.4487 56.9883 99.609 57.4823 99.609ZM66.298 101V91.744H69.886C70.9 91.744 71.7667 91.926 72.486 92.29C73.214 92.654 73.7687 93.1827 74.15 93.876C74.54 94.5607 74.735 95.3883 74.735 96.359C74.735 97.3383 74.5443 98.1747 74.163 98.868C73.7817 99.5527 73.227 100.081 72.499 100.454C71.7797 100.818 70.9087 101 69.886 101H66.298ZM68.326 99.362H69.743C70.731 99.362 71.472 99.115 71.966 98.621C72.46 98.1183 72.707 97.3643 72.707 96.359C72.707 94.3743 71.719 93.382 69.743 93.382H68.326V99.362ZM76.1973 101V94.409H78.1603V101H76.1973ZM76.1193 91.315H78.2383V93.161H76.1193V91.315ZM82.2997 101.104C81.043 101.104 80.0507 100.835 79.3227 100.298L79.8557 98.933C80.2023 99.1843 80.588 99.3793 81.0127 99.518C81.446 99.648 81.8793 99.713 82.3127 99.713C82.6507 99.713 82.9107 99.661 83.0927 99.557C83.2747 99.4443 83.3657 99.2927 83.3657 99.102C83.3657 98.9373 83.3007 98.8117 83.1707 98.725C83.0407 98.6297 82.811 98.543 82.4817 98.465L81.4027 98.205C80.7613 98.075 80.289 97.8583 79.9857 97.555C79.691 97.2517 79.5437 96.8487 79.5437 96.346C79.5437 95.9387 79.6607 95.579 79.8947 95.267C80.1373 94.9463 80.471 94.695 80.8957 94.513C81.3203 94.331 81.8143 94.24 82.3777 94.24C82.8543 94.24 83.3137 94.3137 83.7557 94.461C84.1977 94.5997 84.6007 94.799 84.9647 95.059L84.4187 96.372C84.0807 96.138 83.734 95.9603 83.3787 95.839C83.032 95.7177 82.694 95.657 82.3647 95.657C82.044 95.657 81.7927 95.7133 81.6107 95.826C81.4287 95.9387 81.3377 96.0947 81.3377 96.294C81.3377 96.4413 81.3897 96.5583 81.4937 96.645C81.6063 96.7317 81.8013 96.8097 82.0787 96.879L83.1837 97.126C83.8597 97.282 84.3493 97.516 84.6527 97.828C84.956 98.14 85.1077 98.556 85.1077 99.076C85.1077 99.7 84.8563 100.194 84.3537 100.558C83.8597 100.922 83.175 101.104 82.2997 101.104ZM89.4355 101.104C88.7248 101.104 88.1095 100.965 87.5895 100.688C87.0695 100.411 86.6708 100.021 86.3935 99.518C86.1248 99.0067 85.9905 98.4043 85.9905 97.711C85.9905 97.0177 86.1378 96.411 86.4325 95.891C86.7271 95.371 87.1388 94.968 87.6675 94.682C88.1961 94.3873 88.8158 94.24 89.5265 94.24C89.9945 94.24 90.4538 94.3137 90.9045 94.461C91.3551 94.6083 91.7191 94.8077 91.9965 95.059L91.4765 96.424C91.2165 96.216 90.9305 96.0557 90.6185 95.943C90.3065 95.8217 90.0031 95.761 89.7085 95.761C89.1798 95.761 88.7638 95.9213 88.4605 96.242C88.1571 96.5627 88.0055 97.0393 88.0055 97.672C88.0055 98.3133 88.1528 98.7943 88.4475 99.115C88.7508 99.4357 89.1711 99.596 89.7085 99.596C90.0031 99.596 90.3065 99.5397 90.6185 99.427C90.9305 99.3143 91.2165 99.1497 91.4765 98.933L91.9965 100.298C91.7105 100.549 91.3378 100.749 90.8785 100.896C90.4191 101.035 89.9381 101.104 89.4355 101.104ZM96.0757 101.104C95.3651 101.104 94.7497 100.965 94.2297 100.688C93.7097 100.411 93.3067 100.016 93.0207 99.505C92.7434 98.985 92.6047 98.374 92.6047 97.672C92.6047 96.97 92.7434 96.3633 93.0207 95.852C93.3067 95.3407 93.7097 94.9463 94.2297 94.669C94.7497 94.383 95.3651 94.24 96.0757 94.24C96.7691 94.24 97.3757 94.383 97.8957 94.669C98.4157 94.9463 98.8144 95.3407 99.0917 95.852C99.3777 96.3633 99.5207 96.97 99.5207 97.672C99.5207 98.374 99.3777 98.985 99.0917 99.505C98.8144 100.016 98.4157 100.411 97.8957 100.688C97.3757 100.965 96.7691 101.104 96.0757 101.104ZM96.0757 99.609C96.5524 99.609 96.9207 99.453 97.1807 99.141C97.4407 98.8203 97.5707 98.3307 97.5707 97.672C97.5707 97.022 97.4407 96.541 97.1807 96.229C96.9207 95.9083 96.5524 95.748 96.0757 95.748C95.5904 95.748 95.2134 95.9083 94.9447 96.229C94.6847 96.541 94.5547 97.022 94.5547 97.672C94.5547 98.3307 94.6847 98.8203 94.9447 99.141C95.2047 99.453 95.5817 99.609 96.0757 99.609ZM103.193 101.104C102.37 101.104 101.755 100.874 101.347 100.415C100.94 99.9557 100.736 99.2623 100.736 98.335V94.409H102.699V98.374C102.699 98.7813 102.782 99.0847 102.946 99.284C103.12 99.4747 103.384 99.57 103.739 99.57C104.138 99.57 104.463 99.4313 104.714 99.154C104.966 98.8767 105.091 98.5083 105.091 98.049V94.409H107.067V101H105.156V99.687L105.325 99.7C105.135 100.159 104.853 100.51 104.48 100.753C104.116 100.987 103.687 101.104 103.193 101.104ZM108.659 101V96.294C108.659 95.982 108.651 95.67 108.633 95.358C108.625 95.0373 108.599 94.721 108.555 94.409H110.401L110.544 95.696L110.401 95.683C110.627 95.215 110.939 94.8597 111.337 94.617C111.745 94.3657 112.213 94.24 112.741 94.24C114.293 94.24 115.068 95.163 115.068 97.009V101H113.105V97.1C113.105 96.632 113.019 96.294 112.845 96.086C112.681 95.878 112.416 95.774 112.052 95.774C111.619 95.774 111.272 95.9127 111.012 96.19C110.752 96.4673 110.622 96.84 110.622 97.308V101H108.659ZM115.878 95.878V94.409H120.766V95.878H115.878ZM120.766 99.414V100.922C120.584 100.991 120.402 101.039 120.22 101.065C120.038 101.091 119.843 101.104 119.635 101.104C118.821 101.104 118.197 100.874 117.763 100.415C117.339 99.947 117.126 99.3013 117.126 98.478V92.862L119.089 92.225V98.439C119.089 98.699 119.137 98.907 119.232 99.063C119.328 99.219 119.453 99.3317 119.609 99.401C119.765 99.4617 119.934 99.492 120.116 99.492C120.22 99.492 120.32 99.4877 120.415 99.479C120.519 99.4617 120.636 99.44 120.766 99.414ZM124.689 95.878V94.409H129.265V95.878H124.689ZM129.525 93.07C129.273 93.0093 129.061 92.979 128.888 92.979C128.706 92.979 128.537 93.0137 128.381 93.083C128.225 93.1523 128.103 93.265 128.017 93.421C127.93 93.577 127.887 93.785 127.887 94.045V101H125.924V93.993C125.924 93.1697 126.132 92.5283 126.548 92.069C126.972 91.601 127.592 91.367 128.407 91.367C128.606 91.367 128.797 91.38 128.979 91.406C129.169 91.432 129.351 91.4753 129.525 91.536V93.07ZM133.514 101.104C132.804 101.104 132.188 100.965 131.668 100.688C131.148 100.411 130.745 100.016 130.459 99.505C130.182 98.985 130.043 98.374 130.043 97.672C130.043 96.97 130.182 96.3633 130.459 95.852C130.745 95.3407 131.148 94.9463 131.668 94.669C132.188 94.383 132.804 94.24 133.514 94.24C134.208 94.24 134.814 94.383 135.334 94.669C135.854 94.9463 136.253 95.3407 136.53 95.852C136.816 96.3633 136.959 96.97 136.959 97.672C136.959 98.374 136.816 98.985 136.53 99.505C136.253 100.016 135.854 100.411 135.334 100.688C134.814 100.965 134.208 101.104 133.514 101.104ZM133.514 99.609C133.991 99.609 134.359 99.453 134.619 99.141C134.879 98.8203 135.009 98.3307 135.009 97.672C135.009 97.022 134.879 96.541 134.619 96.229C134.359 95.9083 133.991 95.748 133.514 95.748C133.029 95.748 132.652 95.9083 132.383 96.229C132.123 96.541 131.993 97.022 131.993 97.672C131.993 98.3307 132.123 98.8203 132.383 99.141C132.643 99.453 133.02 99.609 133.514 99.609ZM138.214 101V96.294C138.214 95.982 138.205 95.67 138.188 95.358C138.179 95.0373 138.153 94.721 138.11 94.409H139.956L140.164 96.151L139.956 96.047C140.06 95.4577 140.307 95.0113 140.697 94.708C141.096 94.4047 141.546 94.253 142.049 94.253C142.196 94.253 142.326 94.266 142.439 94.292C142.56 94.318 142.664 94.3483 142.751 94.383L142.738 96.177C142.417 96.0297 142.097 95.956 141.776 95.956C141.421 95.956 141.126 96.021 140.892 96.151C140.667 96.281 140.489 96.4673 140.359 96.71C140.238 96.944 140.177 97.2257 140.177 97.555V101H138.214ZM147.332 101V91.744H153.715V93.317H149.321V95.501H153.442V97.087H149.321V99.427H153.715V101H147.332ZM156.934 101L154.061 94.422H156.102L158 99.193H157.61L159.547 94.422H161.484L158.585 101H156.934ZM167.816 100.298C167.495 100.549 167.105 100.749 166.646 100.896C166.186 101.035 165.723 101.104 165.255 101.104C164.518 101.104 163.881 100.965 163.344 100.688C162.815 100.411 162.408 100.016 162.122 99.505C161.836 98.9937 161.693 98.387 161.693 97.685C161.693 97.009 161.831 96.411 162.109 95.891C162.386 95.371 162.763 94.968 163.24 94.682C163.725 94.3873 164.288 94.24 164.93 94.24C165.545 94.24 166.078 94.3787 166.529 94.656C166.979 94.9247 167.326 95.3103 167.569 95.813C167.811 96.307 167.933 96.8963 167.933 97.581V97.867H163.422L163.448 96.892H166.763L166.256 97.295C166.264 96.7403 166.156 96.3243 165.931 96.047C165.714 95.761 165.398 95.618 164.982 95.618C164.531 95.618 164.18 95.7827 163.929 96.112C163.686 96.4327 163.565 96.905 163.565 97.529C163.565 98.2657 163.708 98.7987 163.994 99.128C164.288 99.4573 164.735 99.622 165.333 99.622C165.679 99.622 166.022 99.5657 166.36 99.453C166.698 99.3403 167.01 99.18 167.296 98.972L167.816 100.298ZM169.165 101V96.294C169.165 95.982 169.156 95.67 169.139 95.358C169.13 95.0373 169.104 94.721 169.061 94.409H170.907L171.115 96.151L170.907 96.047C171.011 95.4577 171.258 95.0113 171.648 94.708C172.047 94.4047 172.497 94.253 173 94.253C173.147 94.253 173.277 94.266 173.39 94.292C173.511 94.318 173.615 94.3483 173.702 94.383L173.689 96.177C173.368 96.0297 173.048 95.956 172.727 95.956C172.372 95.956 172.077 96.021 171.843 96.151C171.618 96.281 171.44 96.4673 171.31 96.71C171.189 96.944 171.128 97.2257 171.128 97.555V101H169.165ZM174.852 103.964L174.397 102.456C174.804 102.378 175.138 102.278 175.398 102.157C175.666 102.044 175.887 101.901 176.061 101.728C176.234 101.555 176.377 101.342 176.49 101.091L176.997 99.96L177.517 99.193L179.454 94.409H181.391L178.362 101.338C178.093 101.945 177.785 102.426 177.439 102.781C177.092 103.136 176.702 103.405 176.269 103.587C175.835 103.769 175.363 103.895 174.852 103.964ZM177.049 101.494L173.968 94.409H176.009L177.907 99.193L177.049 101.494ZM33.265 117.117C32.3203 117.117 31.5013 116.922 30.808 116.532C30.1147 116.142 29.5817 115.592 29.209 114.881C28.8363 114.162 28.65 113.321 28.65 112.359C28.65 111.406 28.8363 110.574 29.209 109.863C29.5817 109.152 30.1147 108.602 30.808 108.212C31.5013 107.822 32.3203 107.627 33.265 107.627C33.8803 107.627 34.4653 107.722 35.02 107.913C35.5747 108.095 36.034 108.355 36.398 108.693L35.761 110.149C35.345 109.837 34.9377 109.612 34.539 109.473C34.149 109.326 33.7373 109.252 33.304 109.252C32.4807 109.252 31.8437 109.516 31.393 110.045C30.9423 110.565 30.717 111.336 30.717 112.359C30.717 113.382 30.9423 114.162 31.393 114.699C31.8437 115.228 32.4807 115.492 33.304 115.492C33.7373 115.492 34.149 115.423 34.539 115.284C34.9377 115.137 35.345 114.907 35.761 114.595L36.398 116.051C36.034 116.389 35.5747 116.653 35.02 116.844C34.4653 117.026 33.8803 117.117 33.265 117.117ZM40.7115 117.104C40.0008 117.104 39.3855 116.965 38.8655 116.688C38.3455 116.411 37.9425 116.016 37.6565 115.505C37.3791 114.985 37.2405 114.374 37.2405 113.672C37.2405 112.97 37.3791 112.363 37.6565 111.852C37.9425 111.341 38.3455 110.946 38.8655 110.669C39.3855 110.383 40.0008 110.24 40.7115 110.24C41.4048 110.24 42.0115 110.383 42.5315 110.669C43.0515 110.946 43.4501 111.341 43.7275 111.852C44.0135 112.363 44.1565 112.97 44.1565 113.672C44.1565 114.374 44.0135 114.985 43.7275 115.505C43.4501 116.016 43.0515 116.411 42.5315 116.688C42.0115 116.965 41.4048 117.104 40.7115 117.104ZM40.7115 115.609C41.1881 115.609 41.5565 115.453 41.8165 115.141C42.0765 114.82 42.2065 114.331 42.2065 113.672C42.2065 113.022 42.0765 112.541 41.8165 112.229C41.5565 111.908 41.1881 111.748 40.7115 111.748C40.2261 111.748 39.8491 111.908 39.5805 112.229C39.3205 112.541 39.1905 113.022 39.1905 113.672C39.1905 114.331 39.3205 114.82 39.5805 115.141C39.8405 115.453 40.2175 115.609 40.7115 115.609ZM47.8292 117.104C47.0058 117.104 46.3905 116.874 45.9832 116.415C45.5758 115.956 45.3722 115.262 45.3722 114.335V110.409H47.3352V114.374C47.3352 114.781 47.4175 115.085 47.5822 115.284C47.7555 115.475 48.0198 115.57 48.3752 115.57C48.7738 115.57 49.0988 115.431 49.3502 115.154C49.6015 114.877 49.7272 114.508 49.7272 114.049V110.409H51.7032V117H49.7922V115.687L49.9612 115.7C49.7705 116.159 49.4888 116.51 49.1162 116.753C48.7522 116.987 48.3232 117.104 47.8292 117.104ZM53.295 117V112.294C53.295 111.982 53.2863 111.67 53.269 111.358C53.2603 111.037 53.2343 110.721 53.191 110.409H55.037L55.245 112.151L55.037 112.047C55.141 111.458 55.388 111.011 55.778 110.708C56.1766 110.405 56.6273 110.253 57.13 110.253C57.2773 110.253 57.4073 110.266 57.52 110.292C57.6413 110.318 57.7453 110.348 57.832 110.383L57.819 112.177C57.4983 112.03 57.1776 111.956 56.857 111.956C56.5016 111.956 56.207 112.021 55.973 112.151C55.7476 112.281 55.57 112.467 55.44 112.71C55.3186 112.944 55.258 113.226 55.258 113.555V117H53.295ZM61.0985 117.104C59.8418 117.104 58.8495 116.835 58.1215 116.298L58.6545 114.933C59.0012 115.184 59.3868 115.379 59.8115 115.518C60.2448 115.648 60.6782 115.713 61.1115 115.713C61.4495 115.713 61.7095 115.661 61.8915 115.557C62.0735 115.444 62.1645 115.293 62.1645 115.102C62.1645 114.937 62.0995 114.812 61.9695 114.725C61.8395 114.63 61.6098 114.543 61.2805 114.465L60.2015 114.205C59.5602 114.075 59.0878 113.858 58.7845 113.555C58.4898 113.252 58.3425 112.849 58.3425 112.346C58.3425 111.939 58.4595 111.579 58.6935 111.267C58.9362 110.946 59.2698 110.695 59.6945 110.513C60.1192 110.331 60.6132 110.24 61.1765 110.24C61.6532 110.24 62.1125 110.314 62.5545 110.461C62.9965 110.6 63.3995 110.799 63.7635 111.059L63.2175 112.372C62.8795 112.138 62.5328 111.96 62.1775 111.839C61.8308 111.718 61.4928 111.657 61.1635 111.657C60.8428 111.657 60.5915 111.713 60.4095 111.826C60.2275 111.939 60.1365 112.095 60.1365 112.294C60.1365 112.441 60.1885 112.558 60.2925 112.645C60.4052 112.732 60.6002 112.81 60.8775 112.879L61.9825 113.126C62.6585 113.282 63.1482 113.516 63.4515 113.828C63.7548 114.14 63.9065 114.556 63.9065 115.076C63.9065 115.7 63.6552 116.194 63.1525 116.558C62.6585 116.922 61.9738 117.104 61.0985 117.104ZM70.9123 116.298C70.5916 116.549 70.2016 116.749 69.7423 116.896C69.283 117.035 68.8193 117.104 68.3513 117.104C67.6146 117.104 66.9776 116.965 66.4403 116.688C65.9116 116.411 65.5043 116.016 65.2183 115.505C64.9323 114.994 64.7893 114.387 64.7893 113.685C64.7893 113.009 64.928 112.411 65.2053 111.891C65.4826 111.371 65.8596 110.968 66.3363 110.682C66.8216 110.387 67.385 110.24 68.0263 110.24C68.6416 110.24 69.1746 110.379 69.6253 110.656C70.076 110.925 70.4226 111.31 70.6653 111.813C70.908 112.307 71.0293 112.896 71.0293 113.581V113.867H66.5183L66.5443 112.892H69.8593L69.3523 113.295C69.361 112.74 69.2526 112.324 69.0273 112.047C68.8106 111.761 68.4943 111.618 68.0783 111.618C67.6276 111.618 67.2766 111.783 67.0253 112.112C66.7826 112.433 66.6613 112.905 66.6613 113.529C66.6613 114.266 66.8043 114.799 67.0903 115.128C67.385 115.457 67.8313 115.622 68.4293 115.622C68.776 115.622 69.1183 115.566 69.4563 115.453C69.7943 115.34 70.1063 115.18 70.3923 114.972L70.9123 116.298ZM80.299 117.117C79.3717 117.117 78.57 116.922 77.894 116.532C77.218 116.142 76.6937 115.592 76.321 114.881C75.957 114.17 75.775 113.33 75.775 112.359C75.775 111.397 75.957 110.561 76.321 109.85C76.6937 109.139 77.218 108.593 77.894 108.212C78.57 107.822 79.3717 107.627 80.299 107.627C81.2263 107.627 82.0237 107.822 82.691 108.212C83.367 108.593 83.887 109.139 84.251 109.85C84.615 110.561 84.797 111.397 84.797 112.359C84.797 113.33 84.615 114.17 84.251 114.881C83.887 115.592 83.367 116.142 82.691 116.532C82.0237 116.922 81.2263 117.117 80.299 117.117ZM80.299 115.544C81.0617 115.544 81.664 115.275 82.106 114.738C82.5567 114.192 82.782 113.399 82.782 112.359C82.782 111.319 82.5567 110.535 82.106 110.006C81.664 109.469 81.0617 109.2 80.299 109.2C79.5277 109.2 78.921 109.469 78.479 110.006C78.037 110.535 77.816 111.319 77.816 112.359C77.816 113.408 78.037 114.201 78.479 114.738C78.921 115.275 79.5277 115.544 80.299 115.544ZM86.252 117V112.294C86.252 111.982 86.2433 111.67 86.226 111.358C86.2173 111.037 86.1913 110.721 86.148 110.409H87.994L88.202 112.151L87.994 112.047C88.098 111.458 88.345 111.011 88.735 110.708C89.1337 110.405 89.5843 110.253 90.087 110.253C90.2343 110.253 90.3643 110.266 90.477 110.292C90.5983 110.318 90.7023 110.348 90.789 110.383L90.776 112.177C90.4553 112.03 90.1347 111.956 89.814 111.956C89.4587 111.956 89.164 112.021 88.93 112.151C88.7047 112.281 88.527 112.467 88.397 112.71C88.2757 112.944 88.215 113.226 88.215 113.555V117H86.252ZM98.0611 117H96.1241V115.388L96.2801 115.674C96.1327 116.125 95.8554 116.476 95.4481 116.727C95.0407 116.978 94.5727 117.104 94.0441 117.104C93.4721 117.104 92.9651 116.961 92.5231 116.675C92.0897 116.38 91.7474 115.977 91.4961 115.466C91.2534 114.946 91.1321 114.339 91.1321 113.646C91.1321 112.961 91.2534 112.363 91.4961 111.852C91.7387 111.341 92.0811 110.946 92.5231 110.669C92.9651 110.383 93.4721 110.24 94.0441 110.24C94.5727 110.24 95.0407 110.374 95.4481 110.643C95.8554 110.903 96.1327 111.25 96.2801 111.683L96.0981 111.917V107.432H98.0611V117ZM94.6161 115.609C95.0927 115.609 95.4611 115.444 95.7211 115.115C95.9897 114.786 96.1241 114.305 96.1241 113.672C96.1241 113.065 95.9897 112.593 95.7211 112.255C95.4611 111.917 95.0927 111.748 94.6161 111.748C94.1221 111.748 93.7407 111.913 93.4721 112.242C93.2121 112.571 93.0821 113.039 93.0821 113.646C93.0821 114.279 93.2164 114.764 93.4851 115.102C93.7624 115.44 94.1394 115.609 94.6161 115.609ZM105.444 116.298C105.123 116.549 104.733 116.749 104.274 116.896C103.814 117.035 103.351 117.104 102.883 117.104C102.146 117.104 101.509 116.965 100.972 116.688C100.443 116.411 100.036 116.016 99.7495 115.505C99.4635 114.994 99.3205 114.387 99.3205 113.685C99.3205 113.009 99.4592 112.411 99.7365 111.891C100.014 111.371 100.391 110.968 100.868 110.682C101.353 110.387 101.916 110.24 102.558 110.24C103.173 110.24 103.706 110.379 104.157 110.656C104.607 110.925 104.954 111.31 105.197 111.813C105.439 112.307 105.561 112.896 105.561 113.581V113.867H101.05L101.076 112.892H104.391L103.884 113.295C103.892 112.74 103.784 112.324 103.559 112.047C103.342 111.761 103.026 111.618 102.61 111.618C102.159 111.618 101.808 111.783 101.557 112.112C101.314 112.433 101.193 112.905 101.193 113.529C101.193 114.266 101.336 114.799 101.622 115.128C101.916 115.457 102.363 115.622 102.961 115.622C103.307 115.622 103.65 115.566 103.988 115.453C104.326 115.34 104.638 115.18 104.924 114.972L105.444 116.298ZM106.793 117V112.294C106.793 111.982 106.784 111.67 106.767 111.358C106.758 111.037 106.732 110.721 106.689 110.409H108.535L108.743 112.151L108.535 112.047C108.639 111.458 108.886 111.011 109.276 110.708C109.675 110.405 110.125 110.253 110.628 110.253C110.775 110.253 110.905 110.266 111.018 110.292C111.139 110.318 111.243 110.348 111.33 110.383L111.317 112.177C110.996 112.03 110.676 111.956 110.355 111.956C110 111.956 109.705 112.021 109.471 112.151C109.246 112.281 109.068 112.467 108.938 112.71C108.817 112.944 108.756 113.226 108.756 113.555V117H106.793ZM118.927 117.104C118.217 117.104 117.601 116.965 117.081 116.688C116.561 116.411 116.158 116.016 115.872 115.505C115.595 114.985 115.456 114.374 115.456 113.672C115.456 112.97 115.595 112.363 115.872 111.852C116.158 111.341 116.561 110.946 117.081 110.669C117.601 110.383 118.217 110.24 118.927 110.24C119.621 110.24 120.227 110.383 120.747 110.669C121.267 110.946 121.666 111.341 121.943 111.852C122.229 112.363 122.372 112.97 122.372 113.672C122.372 114.374 122.229 114.985 121.943 115.505C121.666 116.016 121.267 116.411 120.747 116.688C120.227 116.965 119.621 117.104 118.927 117.104ZM118.927 115.609C119.404 115.609 119.772 115.453 120.032 115.141C120.292 114.82 120.422 114.331 120.422 113.672C120.422 113.022 120.292 112.541 120.032 112.229C119.772 111.908 119.404 111.748 118.927 111.748C118.442 111.748 118.065 111.908 117.796 112.229C117.536 112.541 117.406 113.022 117.406 113.672C117.406 114.331 117.536 114.82 117.796 115.141C118.056 115.453 118.433 115.609 118.927 115.609ZM123.627 117V112.294C123.627 111.982 123.618 111.67 123.601 111.358C123.592 111.037 123.566 110.721 123.523 110.409H125.369L125.512 111.696L125.369 111.683C125.594 111.215 125.906 110.86 126.305 110.617C126.712 110.366 127.18 110.24 127.709 110.24C129.26 110.24 130.036 111.163 130.036 113.009V117H128.073V113.1C128.073 112.632 127.986 112.294 127.813 112.086C127.648 111.878 127.384 111.774 127.02 111.774C126.587 111.774 126.24 111.913 125.98 112.19C125.72 112.467 125.59 112.84 125.59 113.308V117H123.627ZM131.587 117V107.432H133.55V117H131.587ZM135.115 119.964L134.66 118.456C135.068 118.378 135.401 118.278 135.661 118.157C135.93 118.044 136.151 117.901 136.324 117.728C136.498 117.555 136.641 117.342 136.753 117.091L137.26 115.96L137.78 115.193L139.717 110.409H141.654L138.625 117.338C138.357 117.945 138.049 118.426 137.702 118.781C137.356 119.136 136.966 119.405 136.532 119.587C136.099 119.769 135.627 119.895 135.115 119.964ZM137.312 117.494L134.231 110.409H136.272L138.17 115.193L137.312 117.494ZM149.143 117L144.97 107.744H147.089L150.274 115.154H149.676L152.887 107.744H154.941L150.781 117H149.143ZM157.33 117.104C156.758 117.104 156.251 116.965 155.809 116.688C155.367 116.411 155.025 116.016 154.782 115.505C154.54 114.994 154.418 114.396 154.418 113.711C154.418 113.026 154.54 112.424 154.782 111.904C155.034 111.375 155.376 110.968 155.809 110.682C156.251 110.387 156.758 110.24 157.33 110.24C157.859 110.24 158.327 110.37 158.734 110.63C159.142 110.89 159.419 111.241 159.566 111.683L159.41 111.787V110.409H161.347V117H159.41V115.648L159.566 115.674C159.419 116.125 159.142 116.476 158.734 116.727C158.327 116.978 157.859 117.104 157.33 117.104ZM157.902 115.609C158.379 115.609 158.747 115.444 159.007 115.115C159.276 114.786 159.41 114.309 159.41 113.685C159.41 113.061 159.276 112.584 159.007 112.255C158.747 111.917 158.379 111.748 157.902 111.748C157.426 111.748 157.049 111.921 156.771 112.268C156.503 112.615 156.368 113.096 156.368 113.711C156.368 114.326 156.498 114.799 156.758 115.128C157.027 115.449 157.408 115.609 157.902 115.609ZM162.932 117V107.432H164.895V117H162.932ZM166.499 117V110.409H168.462V117H166.499ZM166.421 107.315H168.54V109.161H166.421V107.315ZM176.67 117H174.733V115.388L174.889 115.674C174.742 116.125 174.465 116.476 174.057 116.727C173.65 116.978 173.182 117.104 172.653 117.104C172.081 117.104 171.574 116.961 171.132 116.675C170.699 116.38 170.357 115.977 170.105 115.466C169.863 114.946 169.741 114.339 169.741 113.646C169.741 112.961 169.863 112.363 170.105 111.852C170.348 111.341 170.69 110.946 171.132 110.669C171.574 110.383 172.081 110.24 172.653 110.24C173.182 110.24 173.65 110.374 174.057 110.643C174.465 110.903 174.742 111.25 174.889 111.683L174.707 111.917V107.432H176.67V117ZM173.225 115.609C173.702 115.609 174.07 115.444 174.33 115.115C174.599 114.786 174.733 114.305 174.733 113.672C174.733 113.065 174.599 112.593 174.33 112.255C174.07 111.917 173.702 111.748 173.225 111.748C172.731 111.748 172.35 111.913 172.081 112.242C171.821 112.571 171.691 113.039 171.691 113.646C171.691 114.279 171.826 114.764 172.094 115.102C172.372 115.44 172.749 115.609 173.225 115.609ZM181.17 111.878V110.409H185.746V111.878H181.17ZM186.006 109.07C185.755 109.009 185.542 108.979 185.369 108.979C185.187 108.979 185.018 109.014 184.862 109.083C184.706 109.152 184.585 109.265 184.498 109.421C184.411 109.577 184.368 109.785 184.368 110.045V117H182.405V109.993C182.405 109.17 182.613 108.528 183.029 108.069C183.454 107.601 184.073 107.367 184.888 107.367C185.087 107.367 185.278 107.38 185.46 107.406C185.651 107.432 185.833 107.475 186.006 107.536V109.07ZM189.996 117.104C189.285 117.104 188.67 116.965 188.15 116.688C187.63 116.411 187.227 116.016 186.941 115.505C186.663 114.985 186.525 114.374 186.525 113.672C186.525 112.97 186.663 112.363 186.941 111.852C187.227 111.341 187.63 110.946 188.15 110.669C188.67 110.383 189.285 110.24 189.996 110.24C190.689 110.24 191.296 110.383 191.816 110.669C192.336 110.946 192.734 111.341 193.012 111.852C193.298 112.363 193.441 112.97 193.441 113.672C193.441 114.374 193.298 114.985 193.012 115.505C192.734 116.016 192.336 116.411 191.816 116.688C191.296 116.965 190.689 117.104 189.996 117.104ZM189.996 115.609C190.472 115.609 190.841 115.453 191.101 115.141C191.361 114.82 191.491 114.331 191.491 113.672C191.491 113.022 191.361 112.541 191.101 112.229C190.841 111.908 190.472 111.748 189.996 111.748C189.51 111.748 189.133 111.908 188.865 112.229C188.605 112.541 188.475 113.022 188.475 113.672C188.475 114.331 188.605 114.82 188.865 115.141C189.125 115.453 189.502 115.609 189.996 115.609ZM194.695 117V112.294C194.695 111.982 194.687 111.67 194.669 111.358C194.661 111.037 194.635 110.721 194.591 110.409H196.437L196.645 112.151L196.437 112.047C196.541 111.458 196.788 111.011 197.178 110.708C197.577 110.405 198.028 110.253 198.53 110.253C198.678 110.253 198.808 110.266 198.92 110.292C199.042 110.318 199.146 110.348 199.232 110.383L199.219 112.177C198.899 112.03 198.578 111.956 198.257 111.956C197.902 111.956 197.607 112.021 197.373 112.151C197.148 112.281 196.97 112.467 196.84 112.71C196.719 112.944 196.658 113.226 196.658 113.555V117H194.695ZM31.055 133V125.395H28.156V123.744H36.008V125.395H33.109V133H31.055ZM39.0484 133.104C38.3377 133.104 37.7224 132.965 37.2024 132.688C36.6824 132.411 36.2794 132.016 35.9934 131.505C35.716 130.985 35.5774 130.374 35.5774 129.672C35.5774 128.97 35.716 128.363 35.9934 127.852C36.2794 127.341 36.6824 126.946 37.2024 126.669C37.7224 126.383 38.3377 126.24 39.0484 126.24C39.7417 126.24 40.3484 126.383 40.8684 126.669C41.3884 126.946 41.787 127.341 42.0644 127.852C42.3504 128.363 42.4934 128.97 42.4934 129.672C42.4934 130.374 42.3504 130.985 42.0644 131.505C41.787 132.016 41.3884 132.411 40.8684 132.688C40.3484 132.965 39.7417 133.104 39.0484 133.104ZM39.0484 131.609C39.525 131.609 39.8934 131.453 40.1534 131.141C40.4134 130.82 40.5434 130.331 40.5434 129.672C40.5434 129.022 40.4134 128.541 40.1534 128.229C39.8934 127.908 39.525 127.748 39.0484 127.748C38.563 127.748 38.186 127.908 37.9174 128.229C37.6574 128.541 37.5274 129.022 37.5274 129.672C37.5274 130.331 37.6574 130.82 37.9174 131.141C38.1774 131.453 38.5544 131.609 39.0484 131.609ZM50.3521 133H48.4151V131.388L48.5711 131.674C48.4237 132.125 48.1464 132.476 47.7391 132.727C47.3317 132.978 46.8637 133.104 46.3351 133.104C45.7631 133.104 45.2561 132.961 44.8141 132.675C44.3807 132.38 44.0384 131.977 43.7871 131.466C43.5444 130.946 43.4231 130.339 43.4231 129.646C43.4231 128.961 43.5444 128.363 43.7871 127.852C44.0297 127.341 44.3721 126.946 44.8141 126.669C45.2561 126.383 45.7631 126.24 46.3351 126.24C46.8637 126.24 47.3317 126.374 47.7391 126.643C48.1464 126.903 48.4237 127.25 48.5711 127.683L48.3891 127.917V123.432H50.3521V133ZM46.9071 131.609C47.3837 131.609 47.7521 131.444 48.0121 131.115C48.2807 130.786 48.4151 130.305 48.4151 129.672C48.4151 129.065 48.2807 128.593 48.0121 128.255C47.7521 127.917 47.3837 127.748 46.9071 127.748C46.4131 127.748 46.0317 127.913 45.7631 128.242C45.5031 128.571 45.3731 129.039 45.3731 129.646C45.3731 130.279 45.5074 130.764 45.7761 131.102C46.0534 131.44 46.4304 131.609 46.9071 131.609ZM54.5236 133.104C53.9516 133.104 53.4446 132.965 53.0026 132.688C52.5606 132.411 52.2182 132.016 51.9756 131.505C51.7329 130.994 51.6116 130.396 51.6116 129.711C51.6116 129.026 51.7329 128.424 51.9756 127.904C52.2269 127.375 52.5692 126.968 53.0026 126.682C53.4446 126.387 53.9516 126.24 54.5236 126.24C55.0522 126.24 55.5202 126.37 55.9276 126.63C56.3349 126.89 56.6122 127.241 56.7596 127.683L56.6036 127.787V126.409H58.5406V133H56.6036V131.648L56.7596 131.674C56.6122 132.125 56.3349 132.476 55.9276 132.727C55.5202 132.978 55.0522 133.104 54.5236 133.104ZM55.0956 131.609C55.5722 131.609 55.9406 131.444 56.2006 131.115C56.4692 130.786 56.6036 130.309 56.6036 129.685C56.6036 129.061 56.4692 128.584 56.2006 128.255C55.9406 127.917 55.5722 127.748 55.0956 127.748C54.6189 127.748 54.2419 127.921 53.9646 128.268C53.6959 128.615 53.5616 129.096 53.5616 129.711C53.5616 130.326 53.6916 130.799 53.9516 131.128C54.2202 131.449 54.6016 131.609 55.0956 131.609ZM60.086 135.964L59.631 134.456C60.0384 134.378 60.372 134.278 60.632 134.157C60.9007 134.044 61.1217 133.901 61.295 133.728C61.4684 133.555 61.6114 133.342 61.724 133.091L62.231 131.96L62.751 131.193L64.688 126.409H66.625L63.596 133.338C63.3274 133.945 63.0197 134.426 62.673 134.781C62.3264 135.136 61.9364 135.405 61.503 135.587C61.0697 135.769 60.5974 135.895 60.086 135.964ZM62.283 133.494L59.202 126.409H61.243L63.141 131.193L62.283 133.494ZM66.596 130.907H68.728V133H66.596V130.907ZM70.479 130.023L69.868 123.731L72.286 123.744L71.675 130.023H70.479ZM70.011 130.907H72.143V133H70.011V130.907Z" fill="white"/>
</g>
<defs>
<filter id="filter0_d_517_5620" x="0" y="0.868896" width="368" height="188.131" filterUnits="userSpaceOnUse" color-interpolation-filters="sRGB">
<feFlood flood-opacity="0" result="BackgroundImageFix"/>
<feColorMatrix in="SourceAlpha" type="matrix" values="0 0 0 0 0 0 0 0 0 0 0 0 0 0 0 0 0 0 127 0" result="hardAlpha"/>
<feOffset dy="4"/>
<feGaussianBlur stdDeviation="2"/>
<feComposite in2="hardAlpha" operator="out"/>
<feColorMatrix type="matrix" values="0 0 0 0 0 0 0 0 0 0 0 0 0 0 0 0 0 0 0.25 0"/>
<feBlend mode="normal" in2="BackgroundImageFix" result="effect1_dropShadow_517_5620"/>
<feBlend mode="normal" in="SourceGraphic" in2="effect1_dropShadow_517_5620" result="shape"/>
</filter>
</defs>
</svg>
