<svg width="68" height="68" viewBox="0 0 68 68" fill="none" xmlns="http://www.w3.org/2000/svg">
<g filter="url(#filter0_d_517_7884)">
<circle cx="33" cy="31" r="26" fill="#F5F9FF"/>
</g>
<path fill-rule="evenodd" clip-rule="evenodd" d="M28.996 22.668H26.035C25.66 22.66 25.293 22.809 25.027 23.078C24.758 23.344 24.605 23.715 24.605 24.098V27.121C24.598 27.508 24.746 27.887 25.016 28.16C25.285 28.438 25.652 28.586 26.035 28.578H28.996C29.371 28.578 29.73 28.422 29.992 28.148C30.258 27.875 30.402 27.504 30.398 27.121V24.098C30.391 23.309 29.766 22.672 28.996 22.668ZM28.996 21C30.668 21.004 32.023 22.391 32.031 24.098V27.121C32.031 27.941 31.711 28.727 31.141 29.309C30.57 29.887 29.801 30.211 28.996 30.207H26.035C24.363 30.203 23.012 28.824 23 27.121V24.098C23.012 22.391 24.363 21.012 26.035 21H28.996ZM39.965 21C41.625 21.039 42.957 22.406 42.992 24.098V27.109C43 27.93 42.691 28.719 42.133 29.305C41.57 29.891 40.805 30.227 40.004 30.238H38.777C38.363 30.191 38.047 29.836 38.047 29.41C38.047 28.98 38.363 28.625 38.777 28.578H39.965C40.34 28.578 40.699 28.422 40.965 28.148C41.226 27.875 41.371 27.504 41.367 27.121V24.098C41.355 23.312 40.734 22.676 39.965 22.668H37.004C36.23 22.668 35.601 23.309 35.601 24.098V28.617L35.594 28.723C35.531 29.129 35.183 29.438 34.769 29.434C34.551 29.426 34.348 29.336 34.199 29.176C34.051 29.016 33.973 28.801 33.98 28.578V24.098C33.976 23.277 34.293 22.488 34.863 21.906C35.43 21.328 36.199 21 37.004 21H39.965ZM39.965 33.449H37.004C36.23 33.449 35.601 34.09 35.601 34.879V37.902C35.601 38.281 35.746 38.648 36.012 38.918C36.273 39.184 36.633 39.336 37.004 39.332H39.965C40.336 39.336 40.695 39.184 40.957 38.918C41.223 38.648 41.367 38.281 41.367 37.902V34.879C41.367 34.5 41.219 34.137 40.957 33.867C40.691 33.602 40.336 33.449 39.965 33.449ZM27.25 31.793C27.562 31.758 27.863 31.906 28.031 32.18C28.195 32.449 28.195 32.793 28.031 33.063C27.863 33.332 27.562 33.484 27.25 33.449H26.035C25.258 33.449 24.629 34.09 24.625 34.879V37.863C24.645 38.648 25.266 39.281 26.035 39.293H29.016C29.387 39.297 29.746 39.148 30.012 38.879C30.277 38.609 30.426 38.246 30.426 37.863V33.383L30.41 33.27C30.398 32.977 30.539 32.688 30.789 32.527C31.07 32.344 31.434 32.356 31.703 32.555C31.977 32.754 32.102 33.102 32.02 33.43V37.891C32.02 39.602 30.664 40.992 28.984 40.992H26.035C24.375 40.957 23.035 39.59 23 37.891V34.879C23 34.059 23.32 33.273 23.891 32.691C24.457 32.113 25.23 31.789 26.035 31.793H27.25ZM39.965 31.793C41.637 31.797 42.988 33.176 43 34.879V37.902C42.988 39.609 41.637 40.988 39.965 41H37.004C35.336 40.988 33.984 39.605 33.98 37.902V34.879C33.98 33.176 35.332 31.793 37.004 31.793H39.965Z" fill="#202244"/>
<defs>
<filter id="filter0_d_517_7884" x="0" y="0" width="68" height="68" filterUnits="userSpaceOnUse" color-interpolation-filters="sRGB">
<feFlood flood-opacity="0" result="BackgroundImageFix"/>
<feColorMatrix in="SourceAlpha" type="matrix" values="0 0 0 0 0 0 0 0 0 0 0 0 0 0 0 0 0 0 127 0" result="hardAlpha"/>
<feOffset dx="1" dy="3"/>
<feGaussianBlur stdDeviation="4"/>
<feColorMatrix type="matrix" values="0 0 0 0 0 0 0 0 0 0 0 0 0 0 0 0 0 0 0.1 0"/>
<feBlend mode="normal" in2="BackgroundImageFix" result="effect1_dropShadow_517_7884"/>
<feBlend mode="normal" in="SourceGraphic" in2="effect1_dropShadow_517_7884" result="shape"/>
</filter>
</defs>
</svg>
