<svg width="368" height="468" viewBox="0 0 368 468" fill="none" xmlns="http://www.w3.org/2000/svg">
<g clip-path="url(#clip0_517_3548)" filter="url(#filter0_d_517_3548)">
<rect x="4" width="360" height="460" rx="40" fill="#F5F9FF"/>
<path d="M119.5 43.5L143.5 75.5" stroke="#0F0F0F" stroke-width="2.4" stroke-linecap="round" stroke-linejoin="round"/>
<path d="M144.5 52.5L168.5 84.5" stroke="#167F71" stroke-width="2.4" stroke-linecap="round" stroke-linejoin="round"/>
<mask id="mask0_517_3548" style="mask-type:luminance" maskUnits="userSpaceOnUse" x="114" y="71" width="140" height="142">
<path fill-rule="evenodd" clip-rule="evenodd" d="M114 71.0005H253.668V213H114V71.0005Z" fill="white"/>
</mask>
<g mask="url(#mask0_517_3548)">
<path fill-rule="evenodd" clip-rule="evenodd" d="M183.831 194.069C155.076 194.069 131.763 170.753 131.763 142C131.763 113.243 155.076 89.9323 183.831 89.9323C212.586 89.9323 235.899 113.243 235.899 142C235.899 170.753 212.586 194.069 183.831 194.069ZM252.03 154.203L248.757 153.138C247.667 152.781 246.985 151.689 247.147 150.553C247.924 144.873 247.924 139.119 247.147 133.448C246.985 132.312 247.667 131.22 248.757 130.863L252.03 129.798C253.274 129.395 253.956 128.062 253.551 126.818L249.158 113.31C248.757 112.066 247.424 111.383 246.19 111.789L242.899 112.852C241.813 113.202 240.624 112.716 240.095 111.706C237.377 106.659 233.985 102.009 230.032 97.866C229.225 97.0437 229.127 95.7726 229.798 94.8427L231.839 92.044C232.599 90.9881 232.365 89.5017 231.31 88.7322L219.821 80.3954C218.759 79.6258 217.281 79.8572 216.514 80.913L214.492 83.7026C213.809 84.6348 212.559 84.9302 211.54 84.4195C206.377 81.9322 200.912 80.1526 195.276 79.1334C194.138 78.9456 193.315 77.9608 193.306 76.8156V73.3801C193.306 72.7457 193.054 72.1456 192.617 71.699C192.17 71.2501 191.561 71.0005 190.936 71.0005H176.727C175.421 71.0005 174.365 72.0563 174.365 73.3595V76.795C174.356 77.9516 173.525 78.9273 172.398 79.1151C166.761 80.1435 161.294 81.9253 156.132 84.4103C155.104 84.9211 153.86 84.6142 153.18 83.6866L151.148 80.913C150.381 79.8572 148.904 79.6258 147.839 80.3954L136.353 88.7322C135.297 89.5017 135.063 90.979 135.833 92.044L137.864 94.8313C138.536 95.7726 138.437 97.0437 137.631 97.866C133.678 102.009 130.295 106.659 127.576 111.706C127.038 112.716 125.859 113.202 124.766 112.852L121.482 111.789C120.238 111.383 118.905 112.066 118.504 113.3L114.112 126.818C113.718 128.062 114.398 129.385 115.632 129.798L118.914 130.863C120.007 131.22 120.678 132.312 120.515 133.448C119.739 139.119 119.739 144.873 120.515 150.543C120.678 151.689 120.007 152.781 118.914 153.138L115.632 154.203C114.398 154.606 113.718 155.939 114.112 157.183L118.504 170.691C118.905 171.935 120.238 172.615 121.482 172.212L124.766 171.147C125.859 170.799 127.038 171.282 127.576 172.292C130.295 177.329 133.678 181.992 137.631 186.133C138.437 186.948 138.536 188.226 137.864 189.156L135.833 191.957C135.063 193.013 135.297 194.49 136.353 195.26L147.839 203.606C148.904 204.375 150.381 204.142 151.148 203.088L153.171 200.296C153.851 199.366 155.104 199.071 156.123 199.579C161.285 202.066 166.752 203.848 172.389 204.868C173.525 205.055 174.347 206.04 174.356 207.185V210.621C174.356 211.255 174.608 211.855 175.046 212.302C175.492 212.749 176.101 213 176.727 213H190.936C192.241 213 193.297 211.945 193.297 210.637V207.201C193.306 206.047 194.138 205.074 195.267 204.886C200.903 203.855 206.366 202.076 211.53 199.588C212.559 199.08 213.8 199.382 214.483 200.314L216.505 203.095C217.275 204.16 218.759 204.393 219.812 203.624L231.303 195.276C232.359 194.506 232.592 193.031 231.823 191.966L229.789 189.174C229.118 188.244 229.216 186.964 230.022 186.142C233.978 181.999 237.368 177.347 240.086 172.301C240.615 171.291 241.804 170.808 242.89 171.156L246.181 172.221C247.415 172.624 248.748 171.944 249.151 170.71L253.544 157.19C253.739 156.601 253.686 155.946 253.409 155.383C253.123 154.829 252.633 154.4 252.03 154.203Z" fill="#6B8199"/>
</g>
<path fill-rule="evenodd" clip-rule="evenodd" d="M215.628 124.554C215.628 119.5 211.888 115.24 206.877 114.587C201.877 113.934 197.162 117.111 195.884 121.987C194.603 126.872 197.143 131.943 201.822 133.842V141.427L197.807 145.435L201.816 149.452L197.807 153.47L201.816 157.478V162.175L205.59 167.193L209.358 162.175V133.842C213.141 132.312 215.619 128.633 215.628 124.554Z" fill="#5AB3A0"/>
<path fill-rule="evenodd" clip-rule="evenodd" d="M163.218 128.258C163.218 123.194 167.316 119.097 172.38 119.097C177.444 119.097 181.541 123.194 181.541 128.258V137.419H163.218V128.258ZM188.412 137.419H186.122V128.258C186.122 120.673 179.965 114.516 172.38 114.516C164.794 114.516 158.638 120.673 158.638 128.258V137.419H156.347C155.085 137.419 154.057 138.448 154.057 139.71V164.903C154.057 166.165 155.085 167.194 156.347 167.194H188.412C189.674 167.194 190.702 166.165 190.702 164.903V139.71C190.702 138.448 189.674 137.419 188.412 137.419Z" fill="#D9777D"/>
<mask id="mask1_517_3548" style="mask-type:luminance" maskUnits="userSpaceOnUse" x="114" y="71" width="140" height="142">
<path fill-rule="evenodd" clip-rule="evenodd" d="M114 213H253.668V71H114V213Z" fill="white"/>
</mask>
<g mask="url(#mask1_517_3548)">
<path fill-rule="evenodd" clip-rule="evenodd" d="M170.09 155.742H174.671V148.871H170.09V155.742Z" fill="#F5F5F5"/>
<path fill-rule="evenodd" clip-rule="evenodd" d="M208.453 121.96C208.453 123.542 207.171 124.822 205.59 124.822C204.008 124.822 202.728 123.542 202.728 121.96C202.728 120.377 204.008 119.097 205.59 119.097C207.171 119.097 208.453 120.377 208.453 121.96Z" fill="#F5F5F5"/>
</g>
<path fill-rule="evenodd" clip-rule="evenodd" d="M257 50.5L251.71 53.2812L252.72 47.3906L248.44 43.2188L254.355 42.3594L257 37L259.645 42.3594L265.56 43.2188L261.28 47.3906L262.29 53.2812L257 50.5Z" fill="#FCC202"/>
<path fill-rule="evenodd" clip-rule="evenodd" d="M289 108L296 122H282L289 108Z" fill="#167F71"/>
<circle cx="246" cy="94" r="6" fill="#472D2D"/>
<path fill-rule="evenodd" clip-rule="evenodd" d="M91 171.5L85.7099 174.281L86.7202 168.391L82.4405 164.219L88.355 163.359L91 158L93.645 163.359L99.5595 164.219L95.2798 168.391L96.2901 174.281L91 171.5Z" fill="#FF001E"/>
<path fill-rule="evenodd" clip-rule="evenodd" d="M121 215L128 229H114L121 215Z" fill="#332DA1"/>
<circle cx="119" cy="184" r="4" fill="#167F71"/>
<circle cx="102" cy="84" r="6" fill="#FF6B00"/>
<path d="M103.748 262.6C103.748 261.48 103.996 260.512 104.492 259.696C105.004 258.88 105.668 258.256 106.484 257.824C107.3 257.376 108.188 257.152 109.148 257.152C109.948 257.152 110.66 257.256 111.284 257.464C111.908 257.672 112.468 257.952 112.964 258.304C113.476 258.656 113.916 259.04 114.284 259.456V255.592C113.596 255.048 112.844 254.624 112.028 254.32C111.228 254.016 110.212 253.864 108.98 253.864C107.7 253.864 106.508 254.072 105.404 254.488C104.316 254.904 103.364 255.504 102.548 256.288C101.748 257.072 101.124 258 100.676 259.072C100.244 260.128 100.028 261.304 100.028 262.6C100.028 263.896 100.244 265.08 100.676 266.152C101.124 267.208 101.748 268.128 102.548 268.912C103.364 269.696 104.316 270.296 105.404 270.712C106.508 271.128 107.7 271.336 108.98 271.336C110.212 271.336 111.228 271.184 112.028 270.88C112.844 270.576 113.596 270.152 114.284 269.608V265.744C113.916 266.16 113.476 266.544 112.964 266.896C112.468 267.248 111.908 267.528 111.284 267.736C110.66 267.944 109.948 268.048 109.148 268.048C108.188 268.048 107.3 267.832 106.484 267.4C105.668 266.952 105.004 266.32 104.492 265.504C103.996 264.672 103.748 263.704 103.748 262.6ZM116.667 265.48C116.667 266.616 116.931 267.624 117.459 268.504C118.003 269.368 118.731 270.04 119.643 270.52C120.571 271 121.619 271.24 122.787 271.24C123.955 271.24 124.995 271 125.907 270.52C126.835 270.04 127.563 269.368 128.091 268.504C128.635 267.624 128.907 266.616 128.907 265.48C128.907 264.328 128.635 263.32 128.091 262.456C127.563 261.592 126.835 260.92 125.907 260.44C124.995 259.96 123.955 259.72 122.787 259.72C121.619 259.72 120.571 259.96 119.643 260.44C118.731 260.92 118.003 261.592 117.459 262.456C116.931 263.32 116.667 264.328 116.667 265.48ZM119.835 265.48C119.835 264.856 119.963 264.304 120.219 263.824C120.491 263.344 120.851 262.976 121.299 262.72C121.747 262.464 122.243 262.336 122.787 262.336C123.331 262.336 123.827 262.464 124.275 262.72C124.723 262.976 125.075 263.344 125.331 263.824C125.603 264.304 125.739 264.856 125.739 265.48C125.739 266.104 125.603 266.656 125.331 267.136C125.075 267.6 124.723 267.968 124.275 268.24C123.827 268.496 123.331 268.624 122.787 268.624C122.243 268.624 121.747 268.496 121.299 268.24C120.851 267.968 120.491 267.6 120.219 267.136C119.963 266.656 119.835 266.104 119.835 265.48ZM138.367 264.28V271H141.583V263.944C141.583 262.616 141.263 261.584 140.623 260.848C139.983 260.096 139.007 259.72 137.695 259.72C136.911 259.72 136.239 259.888 135.679 260.224C135.135 260.544 134.695 261.016 134.359 261.64V259.96H131.239V271H134.359V264.28C134.359 263.816 134.447 263.416 134.623 263.08C134.799 262.744 135.055 262.488 135.391 262.312C135.727 262.12 136.111 262.024 136.543 262.024C137.183 262.024 137.647 262.216 137.935 262.6C138.223 262.984 138.367 263.544 138.367 264.28ZM144.117 271.768C144.181 272.728 144.437 273.576 144.885 274.312C145.349 275.064 146.013 275.64 146.877 276.04C147.741 276.456 148.813 276.664 150.093 276.664C151.149 276.664 152.125 276.456 153.021 276.04C153.917 275.64 154.629 275 155.157 274.12C155.701 273.24 155.973 272.12 155.973 270.76V259.96H152.973V270.76C152.973 271.512 152.829 272.136 152.541 272.632C152.269 273.128 151.901 273.496 151.437 273.736C150.989 273.976 150.509 274.096 149.997 274.096C149.437 274.096 148.949 274 148.533 273.808C148.117 273.616 147.789 273.344 147.549 272.992C147.309 272.656 147.181 272.248 147.165 271.768H144.117ZM143.901 265.384C143.901 266.6 144.149 267.632 144.645 268.48C145.141 269.312 145.797 269.944 146.613 270.376C147.429 270.808 148.293 271.024 149.205 271.024C150.133 271.024 150.949 270.808 151.653 270.376C152.373 269.928 152.933 269.28 153.333 268.432C153.749 267.584 153.957 266.568 153.957 265.384C153.957 264.184 153.749 263.168 153.333 262.336C152.933 261.488 152.373 260.84 151.653 260.392C150.949 259.944 150.133 259.72 149.205 259.72C148.293 259.72 147.429 259.936 146.613 260.368C145.797 260.8 145.141 261.44 144.645 262.288C144.149 263.12 143.901 264.152 143.901 265.384ZM147.117 265.384C147.117 264.712 147.253 264.152 147.525 263.704C147.797 263.24 148.165 262.888 148.629 262.648C149.093 262.408 149.589 262.288 150.117 262.288C150.469 262.288 150.813 262.36 151.149 262.504C151.485 262.632 151.789 262.824 152.061 263.08C152.349 263.336 152.573 263.656 152.733 264.04C152.893 264.424 152.973 264.872 152.973 265.384C152.973 266.056 152.829 266.624 152.541 267.088C152.269 267.536 151.909 267.88 151.461 268.12C151.029 268.344 150.581 268.456 150.117 268.456C149.589 268.456 149.093 268.336 148.629 268.096C148.165 267.856 147.797 267.512 147.525 267.064C147.253 266.6 147.117 266.04 147.117 265.384ZM162.037 259.96H158.989V271H162.037V259.96ZM165.277 263.2L166.693 260.56C166.469 260.272 166.173 260.056 165.805 259.912C165.453 259.768 165.077 259.696 164.677 259.696C164.101 259.696 163.541 259.904 162.997 260.32C162.453 260.72 162.013 261.264 161.677 261.952C161.341 262.624 161.173 263.4 161.173 264.28L162.037 265.144C162.037 264.616 162.101 264.168 162.229 263.8C162.373 263.416 162.581 263.12 162.853 262.912C163.125 262.704 163.453 262.6 163.837 262.6C164.157 262.6 164.421 262.656 164.629 262.768C164.853 262.864 165.069 263.008 165.277 263.2ZM170.549 267.568C170.549 267.248 170.621 266.984 170.765 266.776C170.909 266.552 171.133 266.384 171.437 266.272C171.741 266.144 172.133 266.08 172.613 266.08C173.205 266.08 173.765 266.16 174.293 266.32C174.837 266.48 175.325 266.72 175.757 267.04V265.6C175.597 265.408 175.333 265.208 174.965 265C174.597 264.792 174.141 264.616 173.597 264.472C173.069 264.328 172.453 264.256 171.749 264.256C170.373 264.256 169.309 264.568 168.557 265.192C167.805 265.816 167.429 266.664 167.429 267.736C167.429 268.488 167.605 269.128 167.957 269.656C168.325 270.168 168.805 270.56 169.397 270.832C169.989 271.104 170.629 271.24 171.317 271.24C171.989 271.24 172.629 271.12 173.237 270.88C173.861 270.64 174.365 270.28 174.749 269.8C175.149 269.32 175.349 268.728 175.349 268.024L174.965 266.584C174.965 267.112 174.845 267.568 174.605 267.952C174.365 268.32 174.053 268.608 173.669 268.816C173.285 269.008 172.853 269.104 172.373 269.104C172.037 269.104 171.725 269.048 171.437 268.936C171.165 268.808 170.949 268.632 170.789 268.408C170.629 268.168 170.549 267.888 170.549 267.568ZM169.349 263.08C169.509 262.968 169.757 262.832 170.093 262.672C170.429 262.512 170.829 262.376 171.293 262.264C171.757 262.152 172.245 262.096 172.757 262.096C173.093 262.096 173.397 262.128 173.669 262.192C173.941 262.256 174.173 262.36 174.365 262.504C174.573 262.648 174.725 262.832 174.821 263.056C174.917 263.264 174.965 263.52 174.965 263.824V271H177.965V263.176C177.965 262.424 177.757 261.792 177.341 261.28C176.925 260.752 176.349 260.352 175.613 260.08C174.877 259.808 174.037 259.672 173.093 259.672C172.069 259.672 171.141 259.816 170.309 260.104C169.477 260.376 168.773 260.664 168.197 260.968L169.349 263.08ZM179.44 259.96V262.576H186.256V259.96H179.44ZM181.336 256.12V271H184.336V256.12H181.336ZM191.127 266.68V259.96H187.911V267.016C187.911 268.328 188.231 269.36 188.871 270.112C189.527 270.864 190.511 271.24 191.823 271.24C192.607 271.24 193.271 271.08 193.815 270.76C194.359 270.424 194.807 269.944 195.159 269.32V271H198.255V259.96H195.159V266.68C195.159 267.144 195.063 267.544 194.871 267.88C194.695 268.216 194.439 268.48 194.103 268.672C193.783 268.848 193.399 268.936 192.951 268.936C192.311 268.936 191.847 268.744 191.559 268.36C191.271 267.96 191.127 267.4 191.127 266.68ZM201.317 252.28V271H204.437V252.28H201.317ZM209.713 267.568C209.713 267.248 209.785 266.984 209.929 266.776C210.073 266.552 210.297 266.384 210.601 266.272C210.905 266.144 211.297 266.08 211.777 266.08C212.369 266.08 212.929 266.16 213.457 266.32C214.001 266.48 214.489 266.72 214.921 267.04V265.6C214.761 265.408 214.497 265.208 214.129 265C213.761 264.792 213.305 264.616 212.761 264.472C212.233 264.328 211.617 264.256 210.913 264.256C209.537 264.256 208.473 264.568 207.721 265.192C206.969 265.816 206.593 266.664 206.593 267.736C206.593 268.488 206.769 269.128 207.121 269.656C207.489 270.168 207.969 270.56 208.561 270.832C209.153 271.104 209.793 271.24 210.481 271.24C211.153 271.24 211.793 271.12 212.401 270.88C213.025 270.64 213.529 270.28 213.913 269.8C214.313 269.32 214.513 268.728 214.513 268.024L214.129 266.584C214.129 267.112 214.009 267.568 213.769 267.952C213.529 268.32 213.217 268.608 212.833 268.816C212.449 269.008 212.017 269.104 211.537 269.104C211.201 269.104 210.889 269.048 210.601 268.936C210.329 268.808 210.113 268.632 209.953 268.408C209.793 268.168 209.713 267.888 209.713 267.568ZM208.513 263.08C208.673 262.968 208.921 262.832 209.257 262.672C209.593 262.512 209.993 262.376 210.457 262.264C210.921 262.152 211.409 262.096 211.921 262.096C212.257 262.096 212.561 262.128 212.833 262.192C213.105 262.256 213.337 262.36 213.529 262.504C213.737 262.648 213.889 262.832 213.985 263.056C214.081 263.264 214.129 263.52 214.129 263.824V271H217.129V263.176C217.129 262.424 216.921 261.792 216.505 261.28C216.089 260.752 215.513 260.352 214.777 260.08C214.041 259.808 213.201 259.672 212.257 259.672C211.233 259.672 210.305 259.816 209.473 260.104C208.641 260.376 207.937 260.664 207.361 260.968L208.513 263.08ZM218.604 259.96V262.576H225.42V259.96H218.604ZM220.5 256.12V271H223.5V256.12H220.5ZM226.931 255.688C226.931 256.184 227.115 256.6 227.483 256.936C227.851 257.272 228.291 257.44 228.803 257.44C229.315 257.44 229.747 257.272 230.099 256.936C230.467 256.6 230.651 256.184 230.651 255.688C230.651 255.176 230.467 254.76 230.099 254.44C229.747 254.104 229.315 253.936 228.803 253.936C228.291 253.936 227.851 254.104 227.483 254.44C227.115 254.76 226.931 255.176 226.931 255.688ZM227.267 259.96V271H230.291V259.96H227.267ZM232.847 265.48C232.847 266.616 233.111 267.624 233.639 268.504C234.183 269.368 234.911 270.04 235.823 270.52C236.751 271 237.799 271.24 238.967 271.24C240.135 271.24 241.175 271 242.087 270.52C243.015 270.04 243.743 269.368 244.271 268.504C244.815 267.624 245.087 266.616 245.087 265.48C245.087 264.328 244.815 263.32 244.271 262.456C243.743 261.592 243.015 260.92 242.087 260.44C241.175 259.96 240.135 259.72 238.967 259.72C237.799 259.72 236.751 259.96 235.823 260.44C234.911 260.92 234.183 261.592 233.639 262.456C233.111 263.32 232.847 264.328 232.847 265.48ZM236.015 265.48C236.015 264.856 236.143 264.304 236.399 263.824C236.671 263.344 237.031 262.976 237.479 262.72C237.927 262.464 238.423 262.336 238.967 262.336C239.511 262.336 240.007 262.464 240.455 262.72C240.903 262.976 241.255 263.344 241.511 263.824C241.783 264.304 241.919 264.856 241.919 265.48C241.919 266.104 241.783 266.656 241.511 267.136C241.255 267.6 240.903 267.968 240.455 268.24C240.007 268.496 239.511 268.624 238.967 268.624C238.423 268.624 237.927 268.496 237.479 268.24C237.031 267.968 236.671 267.6 236.399 267.136C236.143 266.656 236.015 266.104 236.015 265.48ZM254.547 264.28V271H257.763V263.944C257.763 262.616 257.443 261.584 256.803 260.848C256.163 260.096 255.187 259.72 253.875 259.72C253.091 259.72 252.419 259.888 251.859 260.224C251.315 260.544 250.875 261.016 250.539 261.64V259.96H247.419V271H250.539V264.28C250.539 263.816 250.627 263.416 250.803 263.08C250.979 262.744 251.235 262.488 251.571 262.312C251.907 262.12 252.291 262.024 252.723 262.024C253.363 262.024 253.827 262.216 254.115 262.6C254.403 262.984 254.547 263.544 254.547 264.28ZM261.377 267.184L259.865 269.128C260.281 269.528 260.745 269.904 261.257 270.256C261.785 270.592 262.369 270.864 263.009 271.072C263.665 271.28 264.385 271.384 265.169 271.384C266.433 271.384 267.425 271.08 268.145 270.472C268.865 269.848 269.225 268.984 269.225 267.88C269.225 267.208 269.073 266.664 268.769 266.248C268.465 265.832 268.057 265.488 267.545 265.216C267.049 264.928 266.505 264.672 265.913 264.448C265.433 264.24 265.001 264.064 264.617 263.92C264.249 263.776 263.961 263.616 263.753 263.44C263.561 263.248 263.465 263.032 263.465 262.792C263.465 262.52 263.561 262.32 263.753 262.192C263.961 262.048 264.241 261.976 264.593 261.976C265.121 261.976 265.657 262.112 266.201 262.384C266.761 262.656 267.241 263.008 267.641 263.44L269.009 261.52C268.657 261.168 268.249 260.864 267.785 260.608C267.321 260.336 266.817 260.12 266.273 259.96C265.729 259.8 265.145 259.72 264.521 259.72C263.785 259.72 263.113 259.84 262.505 260.08C261.913 260.304 261.441 260.648 261.089 261.112C260.737 261.56 260.561 262.112 260.561 262.768C260.561 263.456 260.713 264.024 261.017 264.472C261.337 264.904 261.737 265.256 262.217 265.528C262.697 265.784 263.193 266.008 263.705 266.2C264.249 266.376 264.697 266.544 265.049 266.704C265.401 266.864 265.665 267.048 265.841 267.256C266.033 267.448 266.129 267.688 266.129 267.976C266.129 268.296 266.017 268.552 265.793 268.744C265.569 268.92 265.249 269.008 264.833 269.008C264.513 269.008 264.169 268.944 263.801 268.816C263.449 268.688 263.073 268.496 262.673 268.24C262.273 267.968 261.841 267.616 261.377 267.184Z" fill="#202244"/>
<path d="M50.1865 306V301.52L50.5645 302.612L46.1405 296.032H48.1985L51.3485 300.932H50.8305L53.9805 296.032H56.0385L51.6285 302.612L51.9925 301.52V306H50.1865ZM58.5418 306.098C57.8045 306.098 57.1651 305.949 56.6238 305.65C56.0918 305.351 55.6811 304.931 55.3918 304.39C55.1025 303.839 54.9578 303.186 54.9578 302.43C54.9578 301.683 55.1025 301.035 55.3918 300.484C55.6811 299.924 56.0918 299.495 56.6238 299.196C57.1651 298.897 57.8045 298.748 58.5418 298.748C59.2605 298.748 59.8858 298.897 60.4178 299.196C60.9591 299.495 61.3745 299.924 61.6638 300.484C61.9625 301.035 62.1118 301.683 62.1118 302.43C62.1118 303.186 61.9625 303.839 61.6638 304.39C61.3745 304.931 60.9591 305.351 60.4178 305.65C59.8858 305.949 59.2605 306.098 58.5418 306.098ZM58.5418 304.754C59.1205 304.754 59.5638 304.563 59.8718 304.18C60.1891 303.788 60.3478 303.205 60.3478 302.43C60.3478 301.665 60.1891 301.091 59.8718 300.708C59.5638 300.316 59.1205 300.12 58.5418 300.12C57.9538 300.12 57.4965 300.316 57.1698 300.708C56.8525 301.091 56.6938 301.665 56.6938 302.43C56.6938 303.205 56.8525 303.788 57.1698 304.18C57.4871 304.563 57.9445 304.754 58.5418 304.754ZM66.1689 306.098C65.3009 306.098 64.6476 305.86 64.2089 305.384C63.7796 304.899 63.5649 304.171 63.5649 303.2V298.93H65.3149V303.214C65.3149 303.727 65.4223 304.105 65.6369 304.348C65.8516 304.591 66.1736 304.712 66.6029 304.712C67.1163 304.712 67.5269 304.544 67.8349 304.208C68.1429 303.872 68.2969 303.424 68.2969 302.864V298.93H70.0609V306H68.3529V304.544L68.5349 304.53C68.3296 305.043 68.0216 305.435 67.6109 305.706C67.2003 305.967 66.7196 306.098 66.1689 306.098ZM71.9331 306V300.932C71.9331 300.605 71.9238 300.274 71.9051 299.938C71.8958 299.593 71.8678 299.257 71.8211 298.93H73.4731L73.6691 300.75L73.4731 300.652C73.5945 300.027 73.8698 299.555 74.2991 299.238C74.7285 298.921 75.2138 298.762 75.7551 298.762C75.8951 298.762 76.0258 298.771 76.1471 298.79C76.2685 298.809 76.3758 298.837 76.4691 298.874L76.4411 300.47C76.1518 300.349 75.8438 300.288 75.5171 300.288C75.0971 300.288 74.7518 300.372 74.4811 300.54C74.2198 300.708 74.0191 300.937 73.8791 301.226C73.7485 301.506 73.6831 301.823 73.6831 302.178V306H71.9331ZM82.1393 306H80.3193L84.8273 296.032H86.2973L90.8053 306H89.0133L85.3453 297.432H85.8353L82.1393 306ZM82.3073 303.662L82.9933 302.262H88.0753L88.7333 303.662H82.3073ZM94.9497 306.098C94.2123 306.098 93.573 305.953 93.0317 305.664C92.4997 305.365 92.089 304.945 91.7997 304.404C91.5197 303.853 91.3797 303.209 91.3797 302.472C91.3797 301.725 91.529 301.072 91.8277 300.512C92.1263 299.952 92.551 299.518 93.1017 299.21C93.6523 298.902 94.2963 298.748 95.0337 298.748C95.5283 298.748 96.009 298.827 96.4757 298.986C96.9517 299.145 97.339 299.364 97.6377 299.644L97.1337 300.876C96.835 300.633 96.5177 300.451 96.1817 300.33C95.8457 300.199 95.5097 300.134 95.1737 300.134C94.5577 300.134 94.0677 300.33 93.7037 300.722C93.349 301.114 93.1717 301.688 93.1717 302.444C93.1717 303.191 93.349 303.76 93.7037 304.152C94.0583 304.544 94.553 304.74 95.1877 304.74C95.5143 304.74 95.8457 304.679 96.1817 304.558C96.5177 304.427 96.835 304.236 97.1337 303.984L97.6377 305.216C97.3297 305.496 96.933 305.715 96.4477 305.874C95.9717 306.023 95.4723 306.098 94.9497 306.098ZM102.004 306.098C101.267 306.098 100.628 305.953 100.086 305.664C99.5544 305.365 99.1437 304.945 98.8544 304.404C98.5744 303.853 98.4344 303.209 98.4344 302.472C98.4344 301.725 98.5837 301.072 98.8824 300.512C99.181 299.952 99.6057 299.518 100.156 299.21C100.707 298.902 101.351 298.748 102.088 298.748C102.583 298.748 103.064 298.827 103.53 298.986C104.006 299.145 104.394 299.364 104.692 299.644L104.188 300.876C103.89 300.633 103.572 300.451 103.236 300.33C102.9 300.199 102.564 300.134 102.228 300.134C101.612 300.134 101.122 300.33 100.758 300.722C100.404 301.114 100.226 301.688 100.226 302.444C100.226 303.191 100.404 303.76 100.758 304.152C101.113 304.544 101.608 304.74 102.242 304.74C102.569 304.74 102.9 304.679 103.236 304.558C103.572 304.427 103.89 304.236 104.188 303.984L104.692 305.216C104.384 305.496 103.988 305.715 103.502 305.874C103.026 306.023 102.527 306.098 102.004 306.098ZM109.073 306.098C108.336 306.098 107.696 305.949 107.155 305.65C106.623 305.351 106.212 304.931 105.923 304.39C105.634 303.839 105.489 303.186 105.489 302.43C105.489 301.683 105.634 301.035 105.923 300.484C106.212 299.924 106.623 299.495 107.155 299.196C107.696 298.897 108.336 298.748 109.073 298.748C109.792 298.748 110.417 298.897 110.949 299.196C111.49 299.495 111.906 299.924 112.195 300.484C112.494 301.035 112.643 301.683 112.643 302.43C112.643 303.186 112.494 303.839 112.195 304.39C111.906 304.931 111.49 305.351 110.949 305.65C110.417 305.949 109.792 306.098 109.073 306.098ZM109.073 304.754C109.652 304.754 110.095 304.563 110.403 304.18C110.72 303.788 110.879 303.205 110.879 302.43C110.879 301.665 110.72 301.091 110.403 300.708C110.095 300.316 109.652 300.12 109.073 300.12C108.485 300.12 108.028 300.316 107.701 300.708C107.384 301.091 107.225 301.665 107.225 302.43C107.225 303.205 107.384 303.788 107.701 304.18C108.018 304.563 108.476 304.754 109.073 304.754ZM116.7 306.098C115.832 306.098 115.179 305.86 114.74 305.384C114.311 304.899 114.096 304.171 114.096 303.2V298.93H115.846V303.214C115.846 303.727 115.954 304.105 116.168 304.348C116.383 304.591 116.705 304.712 117.134 304.712C117.648 304.712 118.058 304.544 118.366 304.208C118.674 303.872 118.828 303.424 118.828 302.864V298.93H120.592V306H118.884V304.544L119.066 304.53C118.861 305.043 118.553 305.435 118.142 305.706C117.732 305.967 117.251 306.098 116.7 306.098ZM122.464 306V300.932C122.464 300.596 122.455 300.26 122.436 299.924C122.427 299.588 122.399 299.257 122.352 298.93H124.004L124.158 300.33L124.004 300.372C124.228 299.84 124.56 299.439 124.998 299.168C125.446 298.888 125.96 298.748 126.538 298.748C128.218 298.748 129.058 299.719 129.058 301.66V306H127.308V301.73C127.308 301.179 127.201 300.778 126.986 300.526C126.772 300.265 126.44 300.134 125.992 300.134C125.451 300.134 125.017 300.307 124.69 300.652C124.373 300.988 124.214 301.436 124.214 301.996V306H122.464ZM130.018 300.246V298.93H135.002V300.246H130.018ZM135.002 304.544V305.93C134.816 305.995 134.629 306.037 134.442 306.056C134.265 306.084 134.074 306.098 133.868 306.098C133.075 306.098 132.459 305.874 132.02 305.426C131.591 304.978 131.376 304.334 131.376 303.494V297.208L133.126 296.62V303.41C133.126 303.727 133.178 303.979 133.28 304.166C133.383 304.343 133.518 304.469 133.686 304.544C133.864 304.619 134.06 304.656 134.274 304.656C134.396 304.656 134.512 304.647 134.624 304.628C134.736 304.609 134.862 304.581 135.002 304.544ZM140.033 306V298.93H141.783V306H140.033ZM139.949 295.724H141.895V297.446H139.949V295.724ZM146.273 306.098C144.985 306.098 143.968 305.804 143.221 305.216L143.711 303.984C144.085 304.264 144.491 304.474 144.929 304.614C145.368 304.754 145.825 304.824 146.301 304.824C146.731 304.824 147.057 304.754 147.281 304.614C147.505 304.474 147.617 304.278 147.617 304.026C147.617 303.811 147.538 303.643 147.379 303.522C147.221 303.391 146.95 303.279 146.567 303.186L145.391 302.92C144.747 302.78 144.262 302.547 143.935 302.22C143.618 301.884 143.459 301.459 143.459 300.946C143.459 300.517 143.581 300.139 143.823 299.812C144.066 299.476 144.407 299.215 144.845 299.028C145.284 298.841 145.793 298.748 146.371 298.748C146.875 298.748 147.361 298.827 147.827 298.986C148.294 299.135 148.7 299.355 149.045 299.644L148.541 300.848C148.187 300.577 147.823 300.377 147.449 300.246C147.085 300.115 146.721 300.05 146.357 300.05C145.956 300.05 145.643 300.125 145.419 300.274C145.195 300.423 145.083 300.629 145.083 300.89C145.083 301.095 145.149 301.259 145.279 301.38C145.419 301.501 145.657 301.599 145.993 301.674L147.183 301.968C147.883 302.117 148.392 302.36 148.709 302.696C149.036 303.023 149.199 303.457 149.199 303.998C149.199 304.642 148.938 305.155 148.415 305.538C147.893 305.911 147.179 306.098 146.273 306.098ZM154.665 306V296.032H158.935C160.064 296.032 160.923 296.279 161.511 296.774C162.099 297.269 162.393 297.978 162.393 298.902C162.393 299.779 162.09 300.479 161.483 301.002C160.876 301.515 160.032 301.772 158.949 301.772L160.069 301.548C160.414 301.548 160.722 301.651 160.993 301.856C161.264 302.061 161.478 302.379 161.637 302.808L162.869 306H160.965L159.705 302.682C159.574 302.355 159.388 302.136 159.145 302.024C158.912 301.912 158.618 301.856 158.263 301.856H156.443V306H154.665ZM156.429 300.456H158.683C159.374 300.456 159.878 300.33 160.195 300.078C160.512 299.826 160.671 299.448 160.671 298.944C160.671 298.431 160.512 298.053 160.195 297.81C159.878 297.567 159.374 297.446 158.683 297.446H156.429V300.456ZM170.431 305.216C170.095 305.496 169.68 305.715 169.185 305.874C168.7 306.023 168.205 306.098 167.701 306.098C166.936 306.098 166.273 305.953 165.713 305.664C165.162 305.375 164.738 304.955 164.439 304.404C164.14 303.853 163.991 303.2 163.991 302.444C163.991 301.716 164.136 301.077 164.425 300.526C164.714 299.966 165.116 299.532 165.629 299.224C166.142 298.907 166.735 298.748 167.407 298.748C168.06 298.748 168.62 298.893 169.087 299.182C169.554 299.462 169.913 299.868 170.165 300.4C170.426 300.932 170.557 301.562 170.557 302.29V302.556H165.531L165.545 301.618H169.521L169.045 302.094C169.054 301.413 168.919 300.895 168.639 300.54C168.368 300.185 167.972 300.008 167.449 300.008C166.889 300.008 166.455 300.209 166.147 300.61C165.839 301.002 165.685 301.567 165.685 302.304C165.685 303.144 165.858 303.765 166.203 304.166C166.548 304.558 167.071 304.754 167.771 304.754C168.154 304.754 168.527 304.693 168.891 304.572C169.264 304.441 169.61 304.255 169.927 304.012L170.431 305.216ZM174.783 306.098C174.167 306.098 173.621 305.953 173.145 305.664C172.669 305.365 172.3 304.945 172.039 304.404C171.787 303.853 171.661 303.209 171.661 302.472C171.661 301.725 171.792 301.077 172.053 300.526C172.314 299.966 172.678 299.532 173.145 299.224C173.621 298.907 174.167 298.748 174.783 298.748C175.38 298.748 175.898 298.897 176.337 299.196C176.785 299.485 177.088 299.891 177.247 300.414L177.079 300.512V298.93H178.801V306H177.079V304.404L177.247 304.46C177.088 304.983 176.785 305.389 176.337 305.678C175.898 305.958 175.38 306.098 174.783 306.098ZM175.259 304.754C175.838 304.754 176.286 304.553 176.603 304.152C176.92 303.751 177.079 303.181 177.079 302.444C177.079 301.688 176.92 301.114 176.603 300.722C176.286 300.321 175.838 300.12 175.259 300.12C174.671 300.12 174.214 300.325 173.887 300.736C173.56 301.147 173.397 301.725 173.397 302.472C173.397 303.2 173.56 303.765 173.887 304.166C174.214 304.558 174.671 304.754 175.259 304.754ZM187.469 306H185.747V304.208L185.915 304.46C185.756 304.983 185.453 305.389 185.005 305.678C184.566 305.958 184.048 306.098 183.451 306.098C182.835 306.098 182.289 305.949 181.813 305.65C181.346 305.342 180.982 304.908 180.721 304.348C180.46 303.788 180.329 303.139 180.329 302.402C180.329 301.665 180.455 301.021 180.707 300.47C180.968 299.919 181.337 299.495 181.813 299.196C182.289 298.897 182.835 298.748 183.451 298.748C184.048 298.748 184.566 298.897 185.005 299.196C185.453 299.495 185.756 299.896 185.915 300.4L185.719 300.61V295.696H187.469V306ZM183.927 304.754C184.506 304.754 184.954 304.553 185.271 304.152C185.588 303.751 185.747 303.177 185.747 302.43C185.747 301.693 185.588 301.123 185.271 300.722C184.954 300.321 184.506 300.12 183.927 300.12C183.339 300.12 182.882 300.321 182.555 300.722C182.228 301.114 182.065 301.674 182.065 302.402C182.065 303.149 182.228 303.727 182.555 304.138C182.882 304.549 183.339 304.754 183.927 304.754ZM189.207 309.178L188.815 307.834C189.254 307.741 189.618 307.629 189.907 307.498C190.196 307.377 190.434 307.218 190.621 307.022C190.817 306.826 190.98 306.574 191.111 306.266L191.615 305.118L192.063 304.474L194.331 298.93H196.067L192.791 306.476C192.52 307.092 192.208 307.582 191.853 307.946C191.498 308.319 191.097 308.599 190.649 308.786C190.21 308.973 189.73 309.103 189.207 309.178ZM191.657 306.462L188.395 298.93H190.229L192.455 304.474L191.657 306.462ZM199.936 300.246V298.93H204.92V300.246H199.936ZM204.92 304.544V305.93C204.734 305.995 204.547 306.037 204.36 306.056C204.183 306.084 203.992 306.098 203.786 306.098C202.993 306.098 202.377 305.874 201.938 305.426C201.509 304.978 201.294 304.334 201.294 303.494V297.208L203.044 296.62V303.41C203.044 303.727 203.096 303.979 203.198 304.166C203.301 304.343 203.436 304.469 203.604 304.544C203.782 304.619 203.978 304.656 204.192 304.656C204.314 304.656 204.43 304.647 204.542 304.628C204.654 304.609 204.78 304.581 204.92 304.544ZM209.329 306.098C208.592 306.098 207.952 305.949 207.411 305.65C206.879 305.351 206.468 304.931 206.179 304.39C205.89 303.839 205.745 303.186 205.745 302.43C205.745 301.683 205.89 301.035 206.179 300.484C206.468 299.924 206.879 299.495 207.411 299.196C207.952 298.897 208.592 298.748 209.329 298.748C210.048 298.748 210.673 298.897 211.205 299.196C211.746 299.495 212.162 299.924 212.451 300.484C212.75 301.035 212.899 301.683 212.899 302.43C212.899 303.186 212.75 303.839 212.451 304.39C212.162 304.931 211.746 305.351 211.205 305.65C210.673 305.949 210.048 306.098 209.329 306.098ZM209.329 304.754C209.908 304.754 210.351 304.563 210.659 304.18C210.976 303.788 211.135 303.205 211.135 302.43C211.135 301.665 210.976 301.091 210.659 300.708C210.351 300.316 209.908 300.12 209.329 300.12C208.741 300.12 208.284 300.316 207.957 300.708C207.64 301.091 207.481 301.665 207.481 302.43C207.481 303.205 207.64 303.788 207.957 304.18C208.274 304.563 208.732 304.754 209.329 304.754ZM222.492 306.112C221.12 306.112 220.079 305.762 219.37 305.062C218.67 304.362 218.32 303.331 218.32 301.968V296.032H220.084V302.066C220.084 302.925 220.285 303.578 220.686 304.026C221.097 304.465 221.699 304.684 222.492 304.684C223.257 304.684 223.841 304.46 224.242 304.012C224.653 303.564 224.858 302.915 224.858 302.066V296.032H226.65V301.968C226.65 303.321 226.291 304.353 225.572 305.062C224.863 305.762 223.836 306.112 222.492 306.112ZM231.203 306.098C229.915 306.098 228.898 305.804 228.151 305.216L228.641 303.984C229.014 304.264 229.42 304.474 229.859 304.614C230.298 304.754 230.755 304.824 231.231 304.824C231.66 304.824 231.987 304.754 232.211 304.614C232.435 304.474 232.547 304.278 232.547 304.026C232.547 303.811 232.468 303.643 232.309 303.522C232.15 303.391 231.88 303.279 231.497 303.186L230.321 302.92C229.677 302.78 229.192 302.547 228.865 302.22C228.548 301.884 228.389 301.459 228.389 300.946C228.389 300.517 228.51 300.139 228.753 299.812C228.996 299.476 229.336 299.215 229.775 299.028C230.214 298.841 230.722 298.748 231.301 298.748C231.805 298.748 232.29 298.827 232.757 298.986C233.224 299.135 233.63 299.355 233.975 299.644L233.471 300.848C233.116 300.577 232.752 300.377 232.379 300.246C232.015 300.115 231.651 300.05 231.287 300.05C230.886 300.05 230.573 300.125 230.349 300.274C230.125 300.423 230.013 300.629 230.013 300.89C230.013 301.095 230.078 301.259 230.209 301.38C230.349 301.501 230.587 301.599 230.923 301.674L232.113 301.968C232.813 302.117 233.322 302.36 233.639 302.696C233.966 303.023 234.129 303.457 234.129 303.998C234.129 304.642 233.868 305.155 233.345 305.538C232.822 305.911 232.108 306.098 231.203 306.098ZM241.689 305.216C241.353 305.496 240.937 305.715 240.443 305.874C239.957 306.023 239.463 306.098 238.959 306.098C238.193 306.098 237.531 305.953 236.971 305.664C236.42 305.375 235.995 304.955 235.697 304.404C235.398 303.853 235.249 303.2 235.249 302.444C235.249 301.716 235.393 301.077 235.683 300.526C235.972 299.966 236.373 299.532 236.887 299.224C237.4 298.907 237.993 298.748 238.665 298.748C239.318 298.748 239.878 298.893 240.345 299.182C240.811 299.462 241.171 299.868 241.423 300.4C241.684 300.932 241.815 301.562 241.815 302.29V302.556H236.789L236.803 301.618H240.779L240.303 302.094C240.312 301.413 240.177 300.895 239.897 300.54C239.626 300.185 239.229 300.008 238.707 300.008C238.147 300.008 237.713 300.209 237.405 300.61C237.097 301.002 236.943 301.567 236.943 302.304C236.943 303.144 237.115 303.765 237.461 304.166C237.806 304.558 238.329 304.754 239.029 304.754C239.411 304.754 239.785 304.693 240.149 304.572C240.522 304.441 240.867 304.255 241.185 304.012L241.689 305.216ZM243.115 304.04H245.089V306H243.115V304.04ZM253.2 306V301.52L253.578 302.612L249.154 296.032H251.212L254.362 300.932H253.844L256.994 296.032H259.052L254.642 302.612L255.006 301.52V306H253.2ZM261.555 306.098C260.818 306.098 260.179 305.949 259.637 305.65C259.105 305.351 258.695 304.931 258.405 304.39C258.116 303.839 257.971 303.186 257.971 302.43C257.971 301.683 258.116 301.035 258.405 300.484C258.695 299.924 259.105 299.495 259.637 299.196C260.179 298.897 260.818 298.748 261.555 298.748C262.274 298.748 262.899 298.897 263.431 299.196C263.973 299.495 264.388 299.924 264.677 300.484C264.976 301.035 265.125 301.683 265.125 302.43C265.125 303.186 264.976 303.839 264.677 304.39C264.388 304.931 263.973 305.351 263.431 305.65C262.899 305.949 262.274 306.098 261.555 306.098ZM261.555 304.754C262.134 304.754 262.577 304.563 262.885 304.18C263.203 303.788 263.361 303.205 263.361 302.43C263.361 301.665 263.203 301.091 262.885 300.708C262.577 300.316 262.134 300.12 261.555 300.12C260.967 300.12 260.51 300.316 260.183 300.708C259.866 301.091 259.707 301.665 259.707 302.43C259.707 303.205 259.866 303.788 260.183 304.18C260.501 304.563 260.958 304.754 261.555 304.754ZM269.183 306.098C268.315 306.098 267.661 305.86 267.223 305.384C266.793 304.899 266.579 304.171 266.579 303.2V298.93H268.329V303.214C268.329 303.727 268.436 304.105 268.651 304.348C268.865 304.591 269.187 304.712 269.617 304.712C270.13 304.712 270.541 304.544 270.849 304.208C271.157 303.872 271.311 303.424 271.311 302.864V298.93H273.075V306H271.367V304.544L271.549 304.53C271.343 305.043 271.035 305.435 270.625 305.706C270.214 305.967 269.733 306.098 269.183 306.098ZM280.763 306L277.991 298.93H279.797L281.785 304.404H281.435L283.437 298.93H284.711L286.699 304.404H286.377L288.365 298.93H290.059L287.287 306H285.761L283.605 300.302H284.403L282.289 306H280.763ZM291.148 306V298.93H292.898V306H291.148ZM291.064 295.724H293.01V297.446H291.064V295.724ZM294.785 306V295.696H296.535V306H294.785ZM298.421 306V295.696H300.171V306H298.421ZM305.9 306V295.696H307.65V300.61L307.496 300.4C307.645 299.896 307.939 299.495 308.378 299.196C308.817 298.897 309.335 298.748 309.932 298.748C310.557 298.748 311.103 298.897 311.57 299.196C312.037 299.495 312.405 299.919 312.676 300.47C312.947 301.021 313.082 301.665 313.082 302.402C313.082 303.139 312.947 303.788 312.676 304.348C312.405 304.908 312.032 305.342 311.556 305.65C311.089 305.949 310.548 306.098 309.932 306.098C309.335 306.098 308.817 305.958 308.378 305.678C307.939 305.389 307.645 304.983 307.496 304.46L307.65 304.208V306H305.9ZM309.484 304.754C310.063 304.754 310.511 304.549 310.828 304.138C311.145 303.727 311.304 303.149 311.304 302.402C311.304 301.674 311.145 301.114 310.828 300.722C310.511 300.321 310.063 300.12 309.484 300.12C308.887 300.12 308.429 300.321 308.112 300.722C307.804 301.123 307.65 301.693 307.65 302.43C307.65 303.177 307.804 303.751 308.112 304.152C308.429 304.553 308.887 304.754 309.484 304.754ZM320.658 305.216C320.322 305.496 319.906 305.715 319.412 305.874C318.926 306.023 318.432 306.098 317.928 306.098C317.162 306.098 316.5 305.953 315.94 305.664C315.389 305.375 314.964 304.955 314.666 304.404C314.367 303.853 314.218 303.2 314.218 302.444C314.218 301.716 314.362 301.077 314.652 300.526C314.941 299.966 315.342 299.532 315.856 299.224C316.369 298.907 316.962 298.748 317.634 298.748C318.287 298.748 318.847 298.893 319.314 299.182C319.78 299.462 320.14 299.868 320.392 300.4C320.653 300.932 320.784 301.562 320.784 302.29V302.556H315.758L315.772 301.618H319.748L319.272 302.094C319.281 301.413 319.146 300.895 318.866 300.54C318.595 300.185 318.198 300.008 317.676 300.008C317.116 300.008 316.682 300.209 316.374 300.61C316.066 301.002 315.912 301.567 315.912 302.304C315.912 303.144 316.084 303.765 316.43 304.166C316.775 304.558 317.298 304.754 317.998 304.754C318.38 304.754 318.754 304.693 319.118 304.572C319.491 304.441 319.836 304.255 320.154 304.012L320.658 305.216ZM59.4439 324V318.932C59.4439 318.605 59.4345 318.274 59.4159 317.938C59.4065 317.593 59.3785 317.257 59.3319 316.93H60.9839L61.1799 318.75L60.9839 318.652C61.1052 318.027 61.3805 317.555 61.8099 317.238C62.2392 316.921 62.7245 316.762 63.2659 316.762C63.4059 316.762 63.5365 316.771 63.6579 316.79C63.7792 316.809 63.8865 316.837 63.9799 316.874L63.9519 318.47C63.6625 318.349 63.3545 318.288 63.0279 318.288C62.6079 318.288 62.2625 318.372 61.9919 318.54C61.7305 318.708 61.5299 318.937 61.3899 319.226C61.2592 319.506 61.1939 319.823 61.1939 320.178V324H59.4439ZM70.8656 323.216C70.5296 323.496 70.1142 323.715 69.6196 323.874C69.1342 324.023 68.6396 324.098 68.1356 324.098C67.3702 324.098 66.7076 323.953 66.1476 323.664C65.5969 323.375 65.1722 322.955 64.8736 322.404C64.5749 321.853 64.4256 321.2 64.4256 320.444C64.4256 319.716 64.5702 319.077 64.8596 318.526C65.1489 317.966 65.5502 317.532 66.0636 317.224C66.5769 316.907 67.1696 316.748 67.8416 316.748C68.4949 316.748 69.0549 316.893 69.5216 317.182C69.9882 317.462 70.3476 317.868 70.5996 318.4C70.8609 318.932 70.9916 319.562 70.9916 320.29V320.556H65.9656L65.9796 319.618H69.9556L69.4796 320.094C69.4889 319.413 69.3536 318.895 69.0736 318.54C68.8029 318.185 68.4062 318.008 67.8836 318.008C67.3236 318.008 66.8896 318.209 66.5816 318.61C66.2736 319.002 66.1196 319.567 66.1196 320.304C66.1196 321.144 66.2922 321.765 66.6376 322.166C66.9829 322.558 67.5056 322.754 68.2056 322.754C68.5882 322.754 68.9616 322.693 69.3256 322.572C69.6989 322.441 70.0442 322.255 70.3616 322.012L70.8656 323.216ZM79.2355 324H77.5135V322.208L77.6815 322.46C77.5228 322.983 77.2195 323.389 76.7715 323.678C76.3328 323.958 75.8148 324.098 75.2175 324.098C74.6015 324.098 74.0555 323.949 73.5795 323.65C73.1128 323.342 72.7488 322.908 72.4875 322.348C72.2262 321.788 72.0955 321.139 72.0955 320.402C72.0955 319.665 72.2215 319.021 72.4735 318.47C72.7348 317.919 73.1035 317.495 73.5795 317.196C74.0555 316.897 74.6015 316.748 75.2175 316.748C75.8148 316.748 76.3328 316.897 76.7715 317.196C77.2195 317.495 77.5228 317.896 77.6815 318.4L77.4855 318.61V313.696H79.2355V324ZM75.6935 322.754C76.2722 322.754 76.7202 322.553 77.0375 322.152C77.3548 321.751 77.5135 321.177 77.5135 320.43C77.5135 319.693 77.3548 319.123 77.0375 318.722C76.7202 318.321 76.2722 318.12 75.6935 318.12C75.1055 318.12 74.6482 318.321 74.3215 318.722C73.9948 319.114 73.8315 319.674 73.8315 320.402C73.8315 321.149 73.9948 321.727 74.3215 322.138C74.6482 322.549 75.1055 322.754 75.6935 322.754ZM81.1275 324V316.93H82.8775V324H81.1275ZM81.0435 313.724H82.9895V315.446H81.0435V313.724ZM84.7642 324V318.932C84.7642 318.605 84.7548 318.274 84.7362 317.938C84.7268 317.593 84.6988 317.257 84.6522 316.93H86.3042L86.5002 318.75L86.3042 318.652C86.4255 318.027 86.7008 317.555 87.1302 317.238C87.5595 316.921 88.0448 316.762 88.5862 316.762C88.7262 316.762 88.8568 316.771 88.9782 316.79C89.0995 316.809 89.2068 316.837 89.3002 316.874L89.2722 318.47C88.9828 318.349 88.6748 318.288 88.3482 318.288C87.9282 318.288 87.5828 318.372 87.3122 318.54C87.0508 318.708 86.8502 318.937 86.7102 319.226C86.5795 319.506 86.5142 319.823 86.5142 320.178V324H84.7642ZM96.1859 323.216C95.8499 323.496 95.4345 323.715 94.9399 323.874C94.4545 324.023 93.9599 324.098 93.4559 324.098C92.6905 324.098 92.0279 323.953 91.4679 323.664C90.9172 323.375 90.4925 322.955 90.1939 322.404C89.8952 321.853 89.7459 321.2 89.7459 320.444C89.7459 319.716 89.8905 319.077 90.1799 318.526C90.4692 317.966 90.8705 317.532 91.3839 317.224C91.8972 316.907 92.4899 316.748 93.1619 316.748C93.8152 316.748 94.3752 316.893 94.8419 317.182C95.3085 317.462 95.6679 317.868 95.9199 318.4C96.1812 318.932 96.3119 319.562 96.3119 320.29V320.556H91.2859L91.2999 319.618H95.2759L94.7999 320.094C94.8092 319.413 94.6739 318.895 94.3939 318.54C94.1232 318.185 93.7265 318.008 93.2039 318.008C92.6439 318.008 92.2099 318.209 91.9019 318.61C91.5939 319.002 91.4399 319.567 91.4399 320.304C91.4399 321.144 91.6125 321.765 91.9579 322.166C92.3032 322.558 92.8259 322.754 93.5259 322.754C93.9085 322.754 94.2819 322.693 94.6459 322.572C95.0192 322.441 95.3645 322.255 95.6819 322.012L96.1859 323.216ZM100.986 324.098C100.248 324.098 99.6091 323.953 99.0678 323.664C98.5358 323.365 98.1251 322.945 97.8358 322.404C97.5558 321.853 97.4158 321.209 97.4158 320.472C97.4158 319.725 97.5651 319.072 97.8638 318.512C98.1625 317.952 98.5871 317.518 99.1378 317.21C99.6885 316.902 100.332 316.748 101.07 316.748C101.564 316.748 102.045 316.827 102.512 316.986C102.988 317.145 103.375 317.364 103.674 317.644L103.17 318.876C102.871 318.633 102.554 318.451 102.218 318.33C101.882 318.199 101.546 318.134 101.21 318.134C100.594 318.134 100.104 318.33 99.7398 318.722C99.3851 319.114 99.2078 319.688 99.2078 320.444C99.2078 321.191 99.3851 321.76 99.7398 322.152C100.094 322.544 100.589 322.74 101.224 322.74C101.55 322.74 101.882 322.679 102.218 322.558C102.554 322.427 102.871 322.236 103.17 321.984L103.674 323.216C103.366 323.496 102.969 323.715 102.484 323.874C102.008 324.023 101.508 324.098 100.986 324.098ZM104.008 318.246V316.93H108.992V318.246H104.008ZM108.992 322.544V323.93C108.805 323.995 108.618 324.037 108.432 324.056C108.254 324.084 108.063 324.098 107.858 324.098C107.064 324.098 106.448 323.874 106.01 323.426C105.58 322.978 105.366 322.334 105.366 321.494V315.208L107.116 314.62V321.41C107.116 321.727 107.167 321.979 107.27 322.166C107.372 322.343 107.508 322.469 107.676 322.544C107.853 322.619 108.049 322.656 108.264 322.656C108.385 322.656 108.502 322.647 108.614 322.628C108.726 322.609 108.852 322.581 108.992 322.544ZM116.256 323.216C115.92 323.496 115.505 323.715 115.01 323.874C114.525 324.023 114.03 324.098 113.526 324.098C112.761 324.098 112.098 323.953 111.538 323.664C110.988 323.375 110.563 322.955 110.264 322.404C109.966 321.853 109.816 321.2 109.816 320.444C109.816 319.716 109.961 319.077 110.25 318.526C110.54 317.966 110.941 317.532 111.454 317.224C111.968 316.907 112.56 316.748 113.232 316.748C113.886 316.748 114.446 316.893 114.912 317.182C115.379 317.462 115.738 317.868 115.99 318.4C116.252 318.932 116.382 319.562 116.382 320.29V320.556H111.356L111.37 319.618H115.346L114.87 320.094C114.88 319.413 114.744 318.895 114.464 318.54C114.194 318.185 113.797 318.008 113.274 318.008C112.714 318.008 112.28 318.209 111.972 318.61C111.664 319.002 111.51 319.567 111.51 320.304C111.51 321.144 111.683 321.765 112.028 322.166C112.374 322.558 112.896 322.754 113.596 322.754C113.979 322.754 114.352 322.693 114.716 322.572C115.09 322.441 115.435 322.255 115.752 322.012L116.256 323.216ZM124.626 324H122.904V322.208L123.072 322.46C122.913 322.983 122.61 323.389 122.162 323.678C121.723 323.958 121.205 324.098 120.608 324.098C119.992 324.098 119.446 323.949 118.97 323.65C118.503 323.342 118.139 322.908 117.878 322.348C117.617 321.788 117.486 321.139 117.486 320.402C117.486 319.665 117.612 319.021 117.864 318.47C118.125 317.919 118.494 317.495 118.97 317.196C119.446 316.897 119.992 316.748 120.608 316.748C121.205 316.748 121.723 316.897 122.162 317.196C122.61 317.495 122.913 317.896 123.072 318.4L122.876 318.61V313.696H124.626V324ZM121.084 322.754C121.663 322.754 122.111 322.553 122.428 322.152C122.745 321.751 122.904 321.177 122.904 320.43C122.904 319.693 122.745 319.123 122.428 318.722C122.111 318.321 121.663 318.12 121.084 318.12C120.496 318.12 120.039 318.321 119.712 318.722C119.385 319.114 119.222 319.674 119.222 320.402C119.222 321.149 119.385 321.727 119.712 322.138C120.039 322.549 120.496 322.754 121.084 322.754ZM129.492 318.246V316.93H134.476V318.246H129.492ZM134.476 322.544V323.93C134.289 323.995 134.103 324.037 133.916 324.056C133.739 324.084 133.547 324.098 133.342 324.098C132.549 324.098 131.933 323.874 131.494 323.426C131.065 322.978 130.85 322.334 130.85 321.494V315.208L132.6 314.62V321.41C132.6 321.727 132.651 321.979 132.754 322.166C132.857 322.343 132.992 322.469 133.16 322.544C133.337 322.619 133.533 322.656 133.748 322.656C133.869 322.656 133.986 322.647 134.098 322.628C134.21 322.609 134.336 322.581 134.476 322.544ZM138.885 324.098C138.147 324.098 137.508 323.949 136.967 323.65C136.435 323.351 136.024 322.931 135.735 322.39C135.445 321.839 135.301 321.186 135.301 320.43C135.301 319.683 135.445 319.035 135.735 318.484C136.024 317.924 136.435 317.495 136.967 317.196C137.508 316.897 138.147 316.748 138.885 316.748C139.603 316.748 140.229 316.897 140.761 317.196C141.302 317.495 141.717 317.924 142.007 318.484C142.305 319.035 142.455 319.683 142.455 320.43C142.455 321.186 142.305 321.839 142.007 322.39C141.717 322.931 141.302 323.351 140.761 323.65C140.229 323.949 139.603 324.098 138.885 324.098ZM138.885 322.754C139.463 322.754 139.907 322.563 140.215 322.18C140.532 321.788 140.691 321.205 140.691 320.43C140.691 319.665 140.532 319.091 140.215 318.708C139.907 318.316 139.463 318.12 138.885 318.12C138.297 318.12 137.839 318.316 137.513 318.708C137.195 319.091 137.037 319.665 137.037 320.43C137.037 321.205 137.195 321.788 137.513 322.18C137.83 322.563 138.287 322.754 138.885 322.754ZM146.924 318.246V316.93H151.908V318.246H146.924ZM151.908 322.544V323.93C151.721 323.995 151.534 324.037 151.348 324.056C151.17 324.084 150.979 324.098 150.774 324.098C149.98 324.098 149.364 323.874 148.926 323.426C148.496 322.978 148.282 322.334 148.282 321.494V315.208L150.032 314.62V321.41C150.032 321.727 150.083 321.979 150.186 322.166C150.288 322.343 150.424 322.469 150.592 322.544C150.769 322.619 150.965 322.656 151.18 322.656C151.301 322.656 151.418 322.647 151.53 322.628C151.642 322.609 151.768 322.581 151.908 322.544ZM153.096 324V313.696H154.846V318.358L154.636 318.372C154.86 317.84 155.192 317.439 155.63 317.168C156.078 316.888 156.592 316.748 157.17 316.748C158.85 316.748 159.69 317.719 159.69 319.66V324H157.94V319.73C157.94 319.179 157.833 318.778 157.618 318.526C157.404 318.265 157.072 318.134 156.624 318.134C156.083 318.134 155.649 318.307 155.322 318.652C155.005 318.988 154.846 319.436 154.846 319.996V324H153.096ZM167.594 323.216C167.258 323.496 166.843 323.715 166.348 323.874C165.863 324.023 165.368 324.098 164.864 324.098C164.099 324.098 163.436 323.953 162.876 323.664C162.325 323.375 161.901 322.955 161.602 322.404C161.303 321.853 161.154 321.2 161.154 320.444C161.154 319.716 161.299 319.077 161.588 318.526C161.877 317.966 162.279 317.532 162.792 317.224C163.305 316.907 163.898 316.748 164.57 316.748C165.223 316.748 165.783 316.893 166.25 317.182C166.717 317.462 167.076 317.868 167.328 318.4C167.589 318.932 167.72 319.562 167.72 320.29V320.556H162.694L162.708 319.618H166.684L166.208 320.094C166.217 319.413 166.082 318.895 165.802 318.54C165.531 318.185 165.135 318.008 164.612 318.008C164.052 318.008 163.618 318.209 163.31 318.61C163.002 319.002 162.848 319.567 162.848 320.304C162.848 321.144 163.021 321.765 163.366 322.166C163.711 322.558 164.234 322.754 164.934 322.754C165.317 322.754 165.69 322.693 166.054 322.572C166.427 322.441 166.773 322.255 167.09 322.012L167.594 323.216ZM180.072 324V314.032H181.836V324H180.072ZM173.17 324V314.032H174.948V324H173.17ZM173.814 319.66V318.218H181.108V319.66H173.814ZM187.092 324.098C186.354 324.098 185.715 323.949 185.174 323.65C184.642 323.351 184.231 322.931 183.942 322.39C183.652 321.839 183.508 321.186 183.508 320.43C183.508 319.683 183.652 319.035 183.942 318.484C184.231 317.924 184.642 317.495 185.174 317.196C185.715 316.897 186.354 316.748 187.092 316.748C187.81 316.748 188.436 316.897 188.968 317.196C189.509 317.495 189.924 317.924 190.214 318.484C190.512 319.035 190.662 319.683 190.662 320.43C190.662 321.186 190.512 321.839 190.214 322.39C189.924 322.931 189.509 323.351 188.968 323.65C188.436 323.949 187.81 324.098 187.092 324.098ZM187.092 322.754C187.67 322.754 188.114 322.563 188.422 322.18C188.739 321.788 188.898 321.205 188.898 320.43C188.898 319.665 188.739 319.091 188.422 318.708C188.114 318.316 187.67 318.12 187.092 318.12C186.504 318.12 186.046 318.316 185.72 318.708C185.402 319.091 185.244 319.665 185.244 320.43C185.244 321.205 185.402 321.788 185.72 322.18C186.037 322.563 186.494 322.754 187.092 322.754ZM192.157 324V318.932C192.157 318.605 192.147 318.274 192.129 317.938C192.119 317.593 192.091 317.257 192.045 316.93H193.697L193.851 318.33L193.697 318.344C193.883 317.84 194.182 317.448 194.593 317.168C195.003 316.888 195.489 316.748 196.049 316.748C196.711 316.748 197.229 316.916 197.603 317.252C197.985 317.579 198.233 318.083 198.345 318.764L198.009 318.456C198.195 317.943 198.513 317.532 198.961 317.224C199.409 316.907 199.931 316.748 200.529 316.748C201.322 316.748 201.915 316.991 202.307 317.476C202.699 317.952 202.895 318.68 202.895 319.66V324H201.145V319.716C201.145 319.175 201.051 318.778 200.865 318.526C200.687 318.265 200.389 318.134 199.969 318.134C199.483 318.134 199.101 318.307 198.821 318.652C198.55 318.988 198.415 319.455 198.415 320.052V324H196.665V319.716C196.665 319.175 196.567 318.778 196.371 318.526C196.184 318.265 195.885 318.134 195.475 318.134C194.98 318.134 194.593 318.307 194.313 318.652C194.042 318.988 193.907 319.455 193.907 320.052V324H192.157ZM210.825 323.216C210.489 323.496 210.073 323.715 209.579 323.874C209.093 324.023 208.599 324.098 208.095 324.098C207.329 324.098 206.667 323.953 206.107 323.664C205.556 323.375 205.131 322.955 204.833 322.404C204.534 321.853 204.385 321.2 204.385 320.444C204.385 319.716 204.529 319.077 204.819 318.526C205.108 317.966 205.509 317.532 206.023 317.224C206.536 316.907 207.129 316.748 207.801 316.748C208.454 316.748 209.014 316.893 209.481 317.182C209.947 317.462 210.307 317.868 210.559 318.4C210.82 318.932 210.951 319.562 210.951 320.29V320.556H205.925L205.939 319.618H209.915L209.439 320.094C209.448 319.413 209.313 318.895 209.033 318.54C208.762 318.185 208.365 318.008 207.843 318.008C207.283 318.008 206.849 318.209 206.541 318.61C206.233 319.002 206.079 319.567 206.079 320.304C206.079 321.144 206.251 321.765 206.597 322.166C206.942 322.558 207.465 322.754 208.165 322.754C208.547 322.754 208.921 322.693 209.285 322.572C209.658 322.441 210.003 322.255 210.321 322.012L210.825 323.216ZM216.4 324V314.032H220.726C221.809 314.032 222.644 314.293 223.232 314.816C223.83 315.329 224.128 316.034 224.128 316.93C224.128 317.817 223.825 318.521 223.218 319.044C222.621 319.567 221.79 319.828 220.726 319.828H218.206V324H216.4ZM218.206 318.442H220.516C221.151 318.442 221.622 318.311 221.93 318.05C222.248 317.789 222.406 317.42 222.406 316.944C222.406 316.459 222.252 316.09 221.944 315.838C221.636 315.577 221.16 315.446 220.516 315.446H218.206V318.442ZM228.083 324.098C227.467 324.098 226.921 323.953 226.445 323.664C225.969 323.365 225.6 322.945 225.339 322.404C225.087 321.853 224.961 321.209 224.961 320.472C224.961 319.725 225.091 319.077 225.353 318.526C225.614 317.966 225.978 317.532 226.445 317.224C226.921 316.907 227.467 316.748 228.083 316.748C228.68 316.748 229.198 316.897 229.637 317.196C230.085 317.485 230.388 317.891 230.547 318.414L230.379 318.512V316.93H232.101V324H230.379V322.404L230.547 322.46C230.388 322.983 230.085 323.389 229.637 323.678C229.198 323.958 228.68 324.098 228.083 324.098ZM228.559 322.754C229.137 322.754 229.585 322.553 229.903 322.152C230.22 321.751 230.379 321.181 230.379 320.444C230.379 319.688 230.22 319.114 229.903 318.722C229.585 318.321 229.137 318.12 228.559 318.12C227.971 318.12 227.513 318.325 227.187 318.736C226.86 319.147 226.697 319.725 226.697 320.472C226.697 321.2 226.86 321.765 227.187 322.166C227.513 322.558 227.971 322.754 228.559 322.754ZM237.241 327.122C236.149 327.122 235.192 326.898 234.371 326.45L234.651 325.12C235.08 325.344 235.5 325.507 235.911 325.61C236.331 325.722 236.765 325.778 237.213 325.778C237.838 325.778 238.309 325.624 238.627 325.316C238.944 325.008 239.103 324.541 239.103 323.916V322.166H239.271C239.159 322.465 238.981 322.74 238.739 322.992C238.505 323.235 238.221 323.431 237.885 323.58C237.549 323.72 237.18 323.79 236.779 323.79C236.163 323.79 235.617 323.645 235.141 323.356C234.665 323.067 234.291 322.661 234.021 322.138C233.759 321.606 233.629 320.985 233.629 320.276C233.629 319.567 233.759 318.951 234.021 318.428C234.291 317.896 234.665 317.485 235.141 317.196C235.617 316.897 236.163 316.748 236.779 316.748C237.385 316.748 237.913 316.897 238.361 317.196C238.809 317.495 239.112 317.896 239.271 318.4L239.103 318.428V316.93H240.839V323.776C240.839 324.877 240.535 325.708 239.929 326.268C239.322 326.837 238.426 327.122 237.241 327.122ZM237.255 322.432C237.833 322.432 238.286 322.241 238.613 321.858C238.939 321.475 239.103 320.948 239.103 320.276C239.103 319.604 238.939 319.077 238.613 318.694C238.286 318.311 237.833 318.12 237.255 318.12C236.667 318.12 236.205 318.311 235.869 318.694C235.533 319.077 235.365 319.604 235.365 320.276C235.365 320.948 235.533 321.475 235.869 321.858C236.205 322.241 236.667 322.432 237.255 322.432ZM248.791 323.216C248.455 323.496 248.04 323.715 247.545 323.874C247.06 324.023 246.565 324.098 246.061 324.098C245.296 324.098 244.633 323.953 244.073 323.664C243.523 323.375 243.098 322.955 242.799 322.404C242.501 321.853 242.351 321.2 242.351 320.444C242.351 319.716 242.496 319.077 242.785 318.526C243.075 317.966 243.476 317.532 243.989 317.224C244.503 316.907 245.095 316.748 245.767 316.748C246.421 316.748 246.981 316.893 247.447 317.182C247.914 317.462 248.273 317.868 248.525 318.4C248.787 318.932 248.917 319.562 248.917 320.29V320.556H243.891L243.905 319.618H247.881L247.405 320.094C247.415 319.413 247.279 318.895 246.999 318.54C246.729 318.185 246.332 318.008 245.809 318.008C245.249 318.008 244.815 318.209 244.507 318.61C244.199 319.002 244.045 319.567 244.045 320.304C244.045 321.144 244.218 321.765 244.563 322.166C244.909 322.558 245.431 322.754 246.131 322.754C246.514 322.754 246.887 322.693 247.251 322.572C247.625 322.441 247.97 322.255 248.287 322.012L248.791 323.216ZM254.227 324V316.93H255.977V324H254.227ZM254.143 313.724H256.089V315.446H254.143V313.724ZM257.864 324V318.932C257.864 318.596 257.854 318.26 257.836 317.924C257.826 317.588 257.798 317.257 257.752 316.93H259.404L259.558 318.33L259.404 318.372C259.628 317.84 259.959 317.439 260.398 317.168C260.846 316.888 261.359 316.748 261.938 316.748C263.618 316.748 264.458 317.719 264.458 319.66V324H262.708V319.73C262.708 319.179 262.6 318.778 262.386 318.526C262.171 318.265 261.84 318.134 261.392 318.134C260.85 318.134 260.416 318.307 260.09 318.652C259.772 318.988 259.614 319.436 259.614 319.996V324H257.864ZM272.885 324.098C272.269 324.098 271.723 323.953 271.247 323.664C270.771 323.365 270.403 322.945 270.141 322.404C269.889 321.853 269.763 321.209 269.763 320.472C269.763 319.725 269.894 319.077 270.155 318.526C270.417 317.966 270.781 317.532 271.247 317.224C271.723 316.907 272.269 316.748 272.885 316.748C273.483 316.748 274.001 316.897 274.439 317.196C274.887 317.485 275.191 317.891 275.349 318.414L275.181 318.512V316.93H276.903V324H275.181V322.404L275.349 322.46C275.191 322.983 274.887 323.389 274.439 323.678C274.001 323.958 273.483 324.098 272.885 324.098ZM273.361 322.754C273.94 322.754 274.388 322.553 274.705 322.152C275.023 321.751 275.181 321.181 275.181 320.444C275.181 319.688 275.023 319.114 274.705 318.722C274.388 318.321 273.94 318.12 273.361 318.12C272.773 318.12 272.316 318.325 271.989 318.736C271.663 319.147 271.499 319.725 271.499 320.472C271.499 321.2 271.663 321.765 271.989 322.166C272.316 322.558 272.773 322.754 273.361 322.754ZM282.777 324V314.032H289.301V315.474H284.555V318.218H289.021V319.66H284.555V324H282.777ZM296.588 323.216C296.252 323.496 295.837 323.715 295.342 323.874C294.857 324.023 294.362 324.098 293.858 324.098C293.093 324.098 292.43 323.953 291.87 323.664C291.32 323.375 290.895 322.955 290.596 322.404C290.298 321.853 290.148 321.2 290.148 320.444C290.148 319.716 290.293 319.077 290.582 318.526C290.872 317.966 291.273 317.532 291.786 317.224C292.3 316.907 292.892 316.748 293.564 316.748C294.218 316.748 294.778 316.893 295.244 317.182C295.711 317.462 296.07 317.868 296.322 318.4C296.584 318.932 296.714 319.562 296.714 320.29V320.556H291.688L291.702 319.618H295.678L295.202 320.094C295.212 319.413 295.076 318.895 294.796 318.54C294.526 318.185 294.129 318.008 293.606 318.008C293.046 318.008 292.612 318.209 292.304 318.61C291.996 319.002 291.842 319.567 291.842 320.304C291.842 321.144 292.015 321.765 292.36 322.166C292.706 322.558 293.228 322.754 293.928 322.754C294.311 322.754 294.684 322.693 295.048 322.572C295.422 322.441 295.767 322.255 296.084 322.012L296.588 323.216ZM300.047 324L297.275 316.93H299.081L301.069 322.404H300.719L302.721 316.93H303.995L305.983 322.404H305.661L307.649 316.93H309.343L306.571 324H305.045L302.889 318.302H303.687L301.573 324H300.047ZM158.661 342.112C158.148 342.112 157.658 342.07 157.191 341.986C156.724 341.893 156.286 341.757 155.875 341.58C155.474 341.403 155.119 341.188 154.811 340.936L155.413 339.62C155.917 339.993 156.43 340.264 156.953 340.432C157.476 340.6 158.05 340.684 158.675 340.684C159.366 340.684 159.898 340.563 160.271 340.32C160.654 340.077 160.845 339.737 160.845 339.298C160.845 339.037 160.761 338.822 160.593 338.654C160.425 338.477 160.173 338.327 159.837 338.206C159.501 338.085 159.086 337.968 158.591 337.856C158.003 337.744 157.485 337.609 157.037 337.45C156.589 337.282 156.216 337.086 155.917 336.862C155.618 336.638 155.39 336.372 155.231 336.064C155.082 335.747 155.007 335.373 155.007 334.944C155.007 334.356 155.166 333.833 155.483 333.376C155.8 332.919 156.244 332.564 156.813 332.312C157.392 332.051 158.068 331.92 158.843 331.92C159.31 331.92 159.762 331.967 160.201 332.06C160.649 332.153 161.06 332.289 161.433 332.466C161.806 332.634 162.128 332.844 162.399 333.096L161.783 334.412C161.335 334.048 160.868 333.782 160.383 333.614C159.898 333.437 159.389 333.348 158.857 333.348C158.213 333.348 157.704 333.479 157.331 333.74C156.958 334.001 156.771 334.365 156.771 334.832C156.771 335.103 156.846 335.327 156.995 335.504C157.154 335.681 157.392 335.831 157.709 335.952C158.036 336.073 158.451 336.195 158.955 336.316C159.534 336.437 160.047 336.577 160.495 336.736C160.952 336.895 161.34 337.086 161.657 337.31C161.974 337.525 162.212 337.786 162.371 338.094C162.539 338.393 162.623 338.752 162.623 339.172C162.623 339.769 162.464 340.292 162.147 340.74C161.83 341.179 161.372 341.519 160.775 341.762C160.187 341.995 159.482 342.112 158.661 342.112ZM170.246 341.216C169.91 341.496 169.495 341.715 169 341.874C168.515 342.023 168.02 342.098 167.516 342.098C166.751 342.098 166.088 341.953 165.528 341.664C164.978 341.375 164.553 340.955 164.254 340.404C163.956 339.853 163.806 339.2 163.806 338.444C163.806 337.716 163.951 337.077 164.24 336.526C164.53 335.966 164.931 335.532 165.444 335.224C165.958 334.907 166.55 334.748 167.222 334.748C167.876 334.748 168.436 334.893 168.902 335.182C169.369 335.462 169.728 335.868 169.98 336.4C170.242 336.932 170.372 337.562 170.372 338.29V338.556H165.346L165.36 337.618H169.336L168.86 338.094C168.87 337.413 168.734 336.895 168.454 336.54C168.184 336.185 167.787 336.008 167.264 336.008C166.704 336.008 166.27 336.209 165.962 336.61C165.654 337.002 165.5 337.567 165.5 338.304C165.5 339.144 165.673 339.765 166.018 340.166C166.364 340.558 166.886 340.754 167.586 340.754C167.969 340.754 168.342 340.693 168.706 340.572C169.08 340.441 169.425 340.255 169.742 340.012L170.246 341.216ZM175.046 342.098C174.309 342.098 173.67 341.953 173.128 341.664C172.596 341.365 172.186 340.945 171.896 340.404C171.616 339.853 171.476 339.209 171.476 338.472C171.476 337.725 171.626 337.072 171.924 336.512C172.223 335.952 172.648 335.518 173.198 335.21C173.749 334.902 174.393 334.748 175.13 334.748C175.625 334.748 176.106 334.827 176.572 334.986C177.048 335.145 177.436 335.364 177.734 335.644L177.23 336.876C176.932 336.633 176.614 336.451 176.278 336.33C175.942 336.199 175.606 336.134 175.27 336.134C174.654 336.134 174.164 336.33 173.8 336.722C173.446 337.114 173.268 337.688 173.268 338.444C173.268 339.191 173.446 339.76 173.8 340.152C174.155 340.544 174.65 340.74 175.284 340.74C175.611 340.74 175.942 340.679 176.278 340.558C176.614 340.427 176.932 340.236 177.23 339.984L177.734 341.216C177.426 341.496 177.03 341.715 176.544 341.874C176.068 342.023 175.569 342.098 175.046 342.098ZM182.115 342.098C181.378 342.098 180.738 341.949 180.197 341.65C179.665 341.351 179.254 340.931 178.965 340.39C178.676 339.839 178.531 339.186 178.531 338.43C178.531 337.683 178.676 337.035 178.965 336.484C179.254 335.924 179.665 335.495 180.197 335.196C180.738 334.897 181.378 334.748 182.115 334.748C182.834 334.748 183.459 334.897 183.991 335.196C184.532 335.495 184.948 335.924 185.237 336.484C185.536 337.035 185.685 337.683 185.685 338.43C185.685 339.186 185.536 339.839 185.237 340.39C184.948 340.931 184.532 341.351 183.991 341.65C183.459 341.949 182.834 342.098 182.115 342.098ZM182.115 340.754C182.694 340.754 183.137 340.563 183.445 340.18C183.762 339.788 183.921 339.205 183.921 338.43C183.921 337.665 183.762 337.091 183.445 336.708C183.137 336.316 182.694 336.12 182.115 336.12C181.527 336.12 181.07 336.316 180.743 336.708C180.426 337.091 180.267 337.665 180.267 338.43C180.267 339.205 180.426 339.788 180.743 340.18C181.06 340.563 181.518 340.754 182.115 340.754ZM187.18 342V336.932C187.18 336.596 187.171 336.26 187.152 335.924C187.143 335.588 187.115 335.257 187.068 334.93H188.72L188.874 336.33L188.72 336.372C188.944 335.84 189.276 335.439 189.714 335.168C190.162 334.888 190.676 334.748 191.254 334.748C192.934 334.748 193.774 335.719 193.774 337.66V342H192.024V337.73C192.024 337.179 191.917 336.778 191.702 336.526C191.488 336.265 191.156 336.134 190.708 336.134C190.167 336.134 189.733 336.307 189.406 336.652C189.089 336.988 188.93 337.436 188.93 337.996V342H187.18ZM202.378 342H200.656V340.208L200.824 340.46C200.665 340.983 200.362 341.389 199.914 341.678C199.475 341.958 198.957 342.098 198.36 342.098C197.744 342.098 197.198 341.949 196.722 341.65C196.255 341.342 195.891 340.908 195.63 340.348C195.369 339.788 195.238 339.139 195.238 338.402C195.238 337.665 195.364 337.021 195.616 336.47C195.877 335.919 196.246 335.495 196.722 335.196C197.198 334.897 197.744 334.748 198.36 334.748C198.957 334.748 199.475 334.897 199.914 335.196C200.362 335.495 200.665 335.896 200.824 336.4L200.628 336.61V331.696H202.378V342ZM198.836 340.754C199.415 340.754 199.863 340.553 200.18 340.152C200.497 339.751 200.656 339.177 200.656 338.43C200.656 337.693 200.497 337.123 200.18 336.722C199.863 336.321 199.415 336.12 198.836 336.12C198.248 336.12 197.791 336.321 197.464 336.722C197.137 337.114 196.974 337.674 196.974 338.402C196.974 339.149 197.137 339.727 197.464 340.138C197.791 340.549 198.248 340.754 198.836 340.754ZM206.874 342.098C205.586 342.098 204.569 341.804 203.822 341.216L204.312 339.984C204.685 340.264 205.091 340.474 205.53 340.614C205.969 340.754 206.426 340.824 206.902 340.824C207.331 340.824 207.658 340.754 207.882 340.614C208.106 340.474 208.218 340.278 208.218 340.026C208.218 339.811 208.139 339.643 207.98 339.522C207.821 339.391 207.551 339.279 207.168 339.186L205.992 338.92C205.348 338.78 204.863 338.547 204.536 338.22C204.219 337.884 204.06 337.459 204.06 336.946C204.06 336.517 204.181 336.139 204.424 335.812C204.667 335.476 205.007 335.215 205.446 335.028C205.885 334.841 206.393 334.748 206.972 334.748C207.476 334.748 207.961 334.827 208.428 334.986C208.895 335.135 209.301 335.355 209.646 335.644L209.142 336.848C208.787 336.577 208.423 336.377 208.05 336.246C207.686 336.115 207.322 336.05 206.958 336.05C206.557 336.05 206.244 336.125 206.02 336.274C205.796 336.423 205.684 336.629 205.684 336.89C205.684 337.095 205.749 337.259 205.88 337.38C206.02 337.501 206.258 337.599 206.594 337.674L207.784 337.968C208.484 338.117 208.993 338.36 209.31 338.696C209.637 339.023 209.8 339.457 209.8 339.998C209.8 340.642 209.539 341.155 209.016 341.538C208.493 341.911 207.779 342.098 206.874 342.098ZM211.047 340.04H213.021V342H211.047V340.04Z" fill="#545454"/>
<path fill-rule="evenodd" clip-rule="evenodd" d="M172 393C173 393 174 392.204 174 391C174 389.796 173.204 389 172 389H166C165 389 164 389.796 164 391C164 392.204 164.796 393 166 393H172ZM175.398 396C174.796 395 173.602 394.796 172.602 395.204L167.398 398.204C166.398 398.796 166.204 400 166.602 401C167 401.602 167.602 402 168.398 402C168.796 402 169 402 169.398 401.796L174.602 398.796C175.602 398.204 175.796 397 175.398 396ZM179 399.602C178 399 176.796 399.398 176.204 400.398L173.204 405.602C172.602 406.602 173 407.796 174 408.398C174.398 408.602 174.602 408.602 175 408.602C175.602 408.602 176.398 408.204 176.796 407.602L179.796 402.398C180.204 401.398 180 400.204 179 399.602ZM184 401C183 401 182 401.796 182 403V409C182 410.204 182.796 411 184 411C185 411 186 410.204 186 409V403C186 402 185 401 184 401ZM191.602 400.398C191 399.398 189.796 399.204 188.796 399.602C187.796 400.204 187.602 401.398 188 402.398L191 407.602C191.398 408.204 192 408.602 192.796 408.602C193.204 408.602 193.398 408.602 193.796 408.398C194.796 407.796 195 406.602 194.602 405.602L191.602 400.398ZM200.602 398.398L195.398 395.398C194.398 394.796 193.204 395.204 192.602 396.204C192 397.204 192.398 398.398 193.398 399L198.602 402C199 402.204 199.204 402.204 199.602 402.204C200.204 402.204 201 401.796 201.398 401.204C201.796 400 201.602 398.796 200.602 398.398ZM202 389H196C194.796 389 194 389.796 194 391C194 392.204 194.796 393 196 393H202C203.204 393 204 392.204 204 391C204 390 203.204 389 202 389ZM192.602 386C193 386.602 193.602 387 194.398 387C194.796 387 195 387 195.398 386.796L200.602 383.796C201.602 383.204 201.796 382 201.398 381C200.796 380 199.602 379.796 198.602 380.204L193.398 383.204C192.398 383.796 192.204 385 192.602 386ZM189 382.398C189.398 382.602 189.602 382.602 190 382.602C190.602 382.602 191.398 382.204 191.796 381.602L194.796 376.398C195.398 375.398 195 374.204 194 373.602C193 373 191.796 373.398 191.204 374.398L188.204 379.602C187.796 380.602 188 381.796 189 382.398ZM184 371C182.796 371 182 371.796 182 373V379C182 380.204 182.796 381 184 381C185.204 381 186 380.204 186 379V373C186 371.796 185.204 371 184 371Z" fill="#202244"/>
</g>
<defs>
<filter id="filter0_d_517_3548" x="0" y="0" width="368" height="468" filterUnits="userSpaceOnUse" color-interpolation-filters="sRGB">
<feFlood flood-opacity="0" result="BackgroundImageFix"/>
<feColorMatrix in="SourceAlpha" type="matrix" values="0 0 0 0 0 0 0 0 0 0 0 0 0 0 0 0 0 0 127 0" result="hardAlpha"/>
<feOffset dy="4"/>
<feGaussianBlur stdDeviation="2"/>
<feComposite in2="hardAlpha" operator="out"/>
<feColorMatrix type="matrix" values="0 0 0 0 0 0 0 0 0 0 0 0 0 0 0 0 0 0 0.25 0"/>
<feBlend mode="normal" in2="BackgroundImageFix" result="effect1_dropShadow_517_3548"/>
<feBlend mode="normal" in="SourceGraphic" in2="effect1_dropShadow_517_3548" result="shape"/>
</filter>
<clipPath id="clip0_517_3548">
<rect width="360" height="460" fill="white" transform="translate(4)"/>
</clipPath>
</defs>
</svg>
